<?xml version="1.0" encoding="utf-8" standalone="no"?>
<!DOCTYPE svg PUBLIC "-//W3C//DTD SVG 1.1//EN"
  "http://www.w3.org/Graphics/SVG/1.1/DTD/svg11.dtd">
<!-- Created with matplotlib (https://matplotlib.org/) -->
<svg height="360pt" version="1.1" viewBox="0 0 720 360" width="720pt" xmlns="http://www.w3.org/2000/svg" xmlns:xlink="http://www.w3.org/1999/xlink">
 <metadata>
  <rdf:RDF xmlns:cc="http://creativecommons.org/ns#" xmlns:dc="http://purl.org/dc/elements/1.1/" xmlns:rdf="http://www.w3.org/1999/02/22-rdf-syntax-ns#">
   <cc:Work>
    <dc:type rdf:resource="http://purl.org/dc/dcmitype/StillImage"/>
    <dc:date>2023-01-23T04:58:06.859138</dc:date>
    <dc:format>image/svg+xml</dc:format>
    <dc:creator>
     <cc:Agent>
      <dc:title>Matplotlib v3.3.4, https://matplotlib.org/</dc:title>
     </cc:Agent>
    </dc:creator>
   </cc:Work>
  </rdf:RDF>
 </metadata>
 <defs>
  <style type="text/css">*{stroke-linecap:butt;stroke-linejoin:round;}</style>
 </defs>
 <g id="figure_1">
  <g id="patch_1">
   <path d="M 0 360 
L 720 360 
L 720 0 
L 0 0 
z
" style="fill:#ffffff;"/>
  </g>
  <g id="axes_1">
   <g id="patch_2">
    <path d="M 90 315 
L 648 315 
L 648 43.2 
L 90 43.2 
z
" style="fill:#ffffff;"/>
   </g>
   <g id="matplotlib.axis_1">
    <g id="xtick_1">
     <g id="line2d_1">
      <defs>
       <path d="M 0 0 
L 0 4 
" id="m610d19c1f1" style="stroke:#262626;stroke-width:1.25;"/>
      </defs>
      <g>
       <use style="fill:#262626;stroke:#262626;stroke-width:1.25;" x="169.148936" xlink:href="#m610d19c1f1" y="315"/>
      </g>
     </g>
     <g id="line2d_2">
      <defs>
       <path d="M 0 0 
L 0 -4 
" id="m52ede0958f" style="stroke:#262626;stroke-width:1.25;"/>
      </defs>
      <g>
       <use style="fill:#262626;stroke:#262626;stroke-width:1.25;" x="169.148936" xlink:href="#m52ede0958f" y="43.2"/>
      </g>
     </g>
     <g id="text_1">
      <!-- 2020 -->
      <g style="fill:#262626;" transform="translate(155.151436 330.858281)scale(0.11 -0.11)">
       <defs>
        <path d="M 19.1875 8.296875 
L 53.609375 8.296875 
L 53.609375 0 
L 7.328125 0 
L 7.328125 8.296875 
Q 12.9375 14.109375 22.625 23.890625 
Q 32.328125 33.6875 34.8125 36.53125 
Q 39.546875 41.84375 41.421875 45.53125 
Q 43.3125 49.21875 43.3125 52.78125 
Q 43.3125 58.59375 39.234375 62.25 
Q 35.15625 65.921875 28.609375 65.921875 
Q 23.96875 65.921875 18.8125 64.3125 
Q 13.671875 62.703125 7.8125 59.421875 
L 7.8125 69.390625 
Q 13.765625 71.78125 18.9375 73 
Q 24.125 74.21875 28.421875 74.21875 
Q 39.75 74.21875 46.484375 68.546875 
Q 53.21875 62.890625 53.21875 53.421875 
Q 53.21875 48.921875 51.53125 44.890625 
Q 49.859375 40.875 45.40625 35.40625 
Q 44.1875 33.984375 37.640625 27.21875 
Q 31.109375 20.453125 19.1875 8.296875 
z
" id="DejaVuSans-50"/>
        <path d="M 31.78125 66.40625 
Q 24.171875 66.40625 20.328125 58.90625 
Q 16.5 51.421875 16.5 36.375 
Q 16.5 21.390625 20.328125 13.890625 
Q 24.171875 6.390625 31.78125 6.390625 
Q 39.453125 6.390625 43.28125 13.890625 
Q 47.125 21.390625 47.125 36.375 
Q 47.125 51.421875 43.28125 58.90625 
Q 39.453125 66.40625 31.78125 66.40625 
z
M 31.78125 74.21875 
Q 44.046875 74.21875 50.515625 64.515625 
Q 56.984375 54.828125 56.984375 36.375 
Q 56.984375 17.96875 50.515625 8.265625 
Q 44.046875 -1.421875 31.78125 -1.421875 
Q 19.53125 -1.421875 13.0625 8.265625 
Q 6.59375 17.96875 6.59375 36.375 
Q 6.59375 54.828125 13.0625 64.515625 
Q 19.53125 74.21875 31.78125 74.21875 
z
" id="DejaVuSans-48"/>
       </defs>
       <use xlink:href="#DejaVuSans-50"/>
       <use x="63.623047" xlink:href="#DejaVuSans-48"/>
       <use x="127.246094" xlink:href="#DejaVuSans-50"/>
       <use x="190.869141" xlink:href="#DejaVuSans-48"/>
      </g>
     </g>
    </g>
    <g id="xtick_2">
     <g id="line2d_3">
      <g>
       <use style="fill:#262626;stroke:#262626;stroke-width:1.25;" x="282.218845" xlink:href="#m610d19c1f1" y="315"/>
      </g>
     </g>
     <g id="line2d_4">
      <g>
       <use style="fill:#262626;stroke:#262626;stroke-width:1.25;" x="282.218845" xlink:href="#m52ede0958f" y="43.2"/>
      </g>
     </g>
     <g id="text_2">
      <!-- 2040 -->
      <g style="fill:#262626;" transform="translate(268.221345 330.858281)scale(0.11 -0.11)">
       <defs>
        <path d="M 37.796875 64.3125 
L 12.890625 25.390625 
L 37.796875 25.390625 
z
M 35.203125 72.90625 
L 47.609375 72.90625 
L 47.609375 25.390625 
L 58.015625 25.390625 
L 58.015625 17.1875 
L 47.609375 17.1875 
L 47.609375 0 
L 37.796875 0 
L 37.796875 17.1875 
L 4.890625 17.1875 
L 4.890625 26.703125 
z
" id="DejaVuSans-52"/>
       </defs>
       <use xlink:href="#DejaVuSans-50"/>
       <use x="63.623047" xlink:href="#DejaVuSans-48"/>
       <use x="127.246094" xlink:href="#DejaVuSans-52"/>
       <use x="190.869141" xlink:href="#DejaVuSans-48"/>
      </g>
     </g>
    </g>
    <g id="xtick_3">
     <g id="line2d_5">
      <g>
       <use style="fill:#262626;stroke:#262626;stroke-width:1.25;" x="395.288754" xlink:href="#m610d19c1f1" y="315"/>
      </g>
     </g>
     <g id="line2d_6">
      <g>
       <use style="fill:#262626;stroke:#262626;stroke-width:1.25;" x="395.288754" xlink:href="#m52ede0958f" y="43.2"/>
      </g>
     </g>
     <g id="text_3">
      <!-- 2060 -->
      <g style="fill:#262626;" transform="translate(381.291254 330.858281)scale(0.11 -0.11)">
       <defs>
        <path d="M 33.015625 40.375 
Q 26.375 40.375 22.484375 35.828125 
Q 18.609375 31.296875 18.609375 23.390625 
Q 18.609375 15.53125 22.484375 10.953125 
Q 26.375 6.390625 33.015625 6.390625 
Q 39.65625 6.390625 43.53125 10.953125 
Q 47.40625 15.53125 47.40625 23.390625 
Q 47.40625 31.296875 43.53125 35.828125 
Q 39.65625 40.375 33.015625 40.375 
z
M 52.59375 71.296875 
L 52.59375 62.3125 
Q 48.875 64.0625 45.09375 64.984375 
Q 41.3125 65.921875 37.59375 65.921875 
Q 27.828125 65.921875 22.671875 59.328125 
Q 17.53125 52.734375 16.796875 39.40625 
Q 19.671875 43.65625 24.015625 45.921875 
Q 28.375 48.1875 33.59375 48.1875 
Q 44.578125 48.1875 50.953125 41.515625 
Q 57.328125 34.859375 57.328125 23.390625 
Q 57.328125 12.15625 50.6875 5.359375 
Q 44.046875 -1.421875 33.015625 -1.421875 
Q 20.359375 -1.421875 13.671875 8.265625 
Q 6.984375 17.96875 6.984375 36.375 
Q 6.984375 53.65625 15.1875 63.9375 
Q 23.390625 74.21875 37.203125 74.21875 
Q 40.921875 74.21875 44.703125 73.484375 
Q 48.484375 72.75 52.59375 71.296875 
z
" id="DejaVuSans-54"/>
       </defs>
       <use xlink:href="#DejaVuSans-50"/>
       <use x="63.623047" xlink:href="#DejaVuSans-48"/>
       <use x="127.246094" xlink:href="#DejaVuSans-54"/>
       <use x="190.869141" xlink:href="#DejaVuSans-48"/>
      </g>
     </g>
    </g>
    <g id="xtick_4">
     <g id="line2d_7">
      <g>
       <use style="fill:#262626;stroke:#262626;stroke-width:1.25;" x="508.358663" xlink:href="#m610d19c1f1" y="315"/>
      </g>
     </g>
     <g id="line2d_8">
      <g>
       <use style="fill:#262626;stroke:#262626;stroke-width:1.25;" x="508.358663" xlink:href="#m52ede0958f" y="43.2"/>
      </g>
     </g>
     <g id="text_4">
      <!-- 2080 -->
      <g style="fill:#262626;" transform="translate(494.361163 330.858281)scale(0.11 -0.11)">
       <defs>
        <path d="M 31.78125 34.625 
Q 24.75 34.625 20.71875 30.859375 
Q 16.703125 27.09375 16.703125 20.515625 
Q 16.703125 13.921875 20.71875 10.15625 
Q 24.75 6.390625 31.78125 6.390625 
Q 38.8125 6.390625 42.859375 10.171875 
Q 46.921875 13.96875 46.921875 20.515625 
Q 46.921875 27.09375 42.890625 30.859375 
Q 38.875 34.625 31.78125 34.625 
z
M 21.921875 38.8125 
Q 15.578125 40.375 12.03125 44.71875 
Q 8.5 49.078125 8.5 55.328125 
Q 8.5 64.0625 14.71875 69.140625 
Q 20.953125 74.21875 31.78125 74.21875 
Q 42.671875 74.21875 48.875 69.140625 
Q 55.078125 64.0625 55.078125 55.328125 
Q 55.078125 49.078125 51.53125 44.71875 
Q 48 40.375 41.703125 38.8125 
Q 48.828125 37.15625 52.796875 32.3125 
Q 56.78125 27.484375 56.78125 20.515625 
Q 56.78125 9.90625 50.3125 4.234375 
Q 43.84375 -1.421875 31.78125 -1.421875 
Q 19.734375 -1.421875 13.25 4.234375 
Q 6.78125 9.90625 6.78125 20.515625 
Q 6.78125 27.484375 10.78125 32.3125 
Q 14.796875 37.15625 21.921875 38.8125 
z
M 18.3125 54.390625 
Q 18.3125 48.734375 21.84375 45.5625 
Q 25.390625 42.390625 31.78125 42.390625 
Q 38.140625 42.390625 41.71875 45.5625 
Q 45.3125 48.734375 45.3125 54.390625 
Q 45.3125 60.0625 41.71875 63.234375 
Q 38.140625 66.40625 31.78125 66.40625 
Q 25.390625 66.40625 21.84375 63.234375 
Q 18.3125 60.0625 18.3125 54.390625 
z
" id="DejaVuSans-56"/>
       </defs>
       <use xlink:href="#DejaVuSans-50"/>
       <use x="63.623047" xlink:href="#DejaVuSans-48"/>
       <use x="127.246094" xlink:href="#DejaVuSans-56"/>
       <use x="190.869141" xlink:href="#DejaVuSans-48"/>
      </g>
     </g>
    </g>
    <g id="xtick_5">
     <g id="line2d_9">
      <g>
       <use style="fill:#262626;stroke:#262626;stroke-width:1.25;" x="621.428571" xlink:href="#m610d19c1f1" y="315"/>
      </g>
     </g>
     <g id="line2d_10">
      <g>
       <use style="fill:#262626;stroke:#262626;stroke-width:1.25;" x="621.428571" xlink:href="#m52ede0958f" y="43.2"/>
      </g>
     </g>
     <g id="text_5">
      <!-- 2100 -->
      <g style="fill:#262626;" transform="translate(607.431071 330.858281)scale(0.11 -0.11)">
       <defs>
        <path d="M 12.40625 8.296875 
L 28.515625 8.296875 
L 28.515625 63.921875 
L 10.984375 60.40625 
L 10.984375 69.390625 
L 28.421875 72.90625 
L 38.28125 72.90625 
L 38.28125 8.296875 
L 54.390625 8.296875 
L 54.390625 0 
L 12.40625 0 
z
" id="DejaVuSans-49"/>
       </defs>
       <use xlink:href="#DejaVuSans-50"/>
       <use x="63.623047" xlink:href="#DejaVuSans-49"/>
       <use x="127.246094" xlink:href="#DejaVuSans-48"/>
       <use x="190.869141" xlink:href="#DejaVuSans-48"/>
      </g>
     </g>
    </g>
    <g id="text_6">
     <!-- Years -->
     <g style="fill:#262626;" transform="translate(353.169375 346.264063)scale(0.12 -0.12)">
      <defs>
       <path d="M -0.203125 72.90625 
L 10.40625 72.90625 
L 30.609375 42.921875 
L 50.6875 72.90625 
L 61.28125 72.90625 
L 35.5 34.71875 
L 35.5 0 
L 25.59375 0 
L 25.59375 34.71875 
z
" id="DejaVuSans-89"/>
       <path d="M 56.203125 29.59375 
L 56.203125 25.203125 
L 14.890625 25.203125 
Q 15.484375 15.921875 20.484375 11.0625 
Q 25.484375 6.203125 34.421875 6.203125 
Q 39.59375 6.203125 44.453125 7.46875 
Q 49.3125 8.734375 54.109375 11.28125 
L 54.109375 2.78125 
Q 49.265625 0.734375 44.1875 -0.34375 
Q 39.109375 -1.421875 33.890625 -1.421875 
Q 20.796875 -1.421875 13.15625 6.1875 
Q 5.515625 13.8125 5.515625 26.8125 
Q 5.515625 40.234375 12.765625 48.109375 
Q 20.015625 56 32.328125 56 
Q 43.359375 56 49.78125 48.890625 
Q 56.203125 41.796875 56.203125 29.59375 
z
M 47.21875 32.234375 
Q 47.125 39.59375 43.09375 43.984375 
Q 39.0625 48.390625 32.421875 48.390625 
Q 24.90625 48.390625 20.390625 44.140625 
Q 15.875 39.890625 15.1875 32.171875 
z
" id="DejaVuSans-101"/>
       <path d="M 34.28125 27.484375 
Q 23.390625 27.484375 19.1875 25 
Q 14.984375 22.515625 14.984375 16.5 
Q 14.984375 11.71875 18.140625 8.90625 
Q 21.296875 6.109375 26.703125 6.109375 
Q 34.1875 6.109375 38.703125 11.40625 
Q 43.21875 16.703125 43.21875 25.484375 
L 43.21875 27.484375 
z
M 52.203125 31.203125 
L 52.203125 0 
L 43.21875 0 
L 43.21875 8.296875 
Q 40.140625 3.328125 35.546875 0.953125 
Q 30.953125 -1.421875 24.3125 -1.421875 
Q 15.921875 -1.421875 10.953125 3.296875 
Q 6 8.015625 6 15.921875 
Q 6 25.140625 12.171875 29.828125 
Q 18.359375 34.515625 30.609375 34.515625 
L 43.21875 34.515625 
L 43.21875 35.40625 
Q 43.21875 41.609375 39.140625 45 
Q 35.0625 48.390625 27.6875 48.390625 
Q 23 48.390625 18.546875 47.265625 
Q 14.109375 46.140625 10.015625 43.890625 
L 10.015625 52.203125 
Q 14.9375 54.109375 19.578125 55.046875 
Q 24.21875 56 28.609375 56 
Q 40.484375 56 46.34375 49.84375 
Q 52.203125 43.703125 52.203125 31.203125 
z
" id="DejaVuSans-97"/>
       <path d="M 41.109375 46.296875 
Q 39.59375 47.171875 37.8125 47.578125 
Q 36.03125 48 33.890625 48 
Q 26.265625 48 22.1875 43.046875 
Q 18.109375 38.09375 18.109375 28.8125 
L 18.109375 0 
L 9.078125 0 
L 9.078125 54.6875 
L 18.109375 54.6875 
L 18.109375 46.1875 
Q 20.953125 51.171875 25.484375 53.578125 
Q 30.03125 56 36.53125 56 
Q 37.453125 56 38.578125 55.875 
Q 39.703125 55.765625 41.0625 55.515625 
z
" id="DejaVuSans-114"/>
       <path d="M 44.28125 53.078125 
L 44.28125 44.578125 
Q 40.484375 46.53125 36.375 47.5 
Q 32.28125 48.484375 27.875 48.484375 
Q 21.1875 48.484375 17.84375 46.4375 
Q 14.5 44.390625 14.5 40.28125 
Q 14.5 37.15625 16.890625 35.375 
Q 19.28125 33.59375 26.515625 31.984375 
L 29.59375 31.296875 
Q 39.15625 29.25 43.1875 25.515625 
Q 47.21875 21.78125 47.21875 15.09375 
Q 47.21875 7.46875 41.1875 3.015625 
Q 35.15625 -1.421875 24.609375 -1.421875 
Q 20.21875 -1.421875 15.453125 -0.5625 
Q 10.6875 0.296875 5.421875 2 
L 5.421875 11.28125 
Q 10.40625 8.6875 15.234375 7.390625 
Q 20.0625 6.109375 24.8125 6.109375 
Q 31.15625 6.109375 34.5625 8.28125 
Q 37.984375 10.453125 37.984375 14.40625 
Q 37.984375 18.0625 35.515625 20.015625 
Q 33.0625 21.96875 24.703125 23.78125 
L 21.578125 24.515625 
Q 13.234375 26.265625 9.515625 29.90625 
Q 5.8125 33.546875 5.8125 39.890625 
Q 5.8125 47.609375 11.28125 51.796875 
Q 16.75 56 26.8125 56 
Q 31.78125 56 36.171875 55.265625 
Q 40.578125 54.546875 44.28125 53.078125 
z
" id="DejaVuSans-115"/>
      </defs>
      <use xlink:href="#DejaVuSans-89"/>
      <use x="47.833984" xlink:href="#DejaVuSans-101"/>
      <use x="109.357422" xlink:href="#DejaVuSans-97"/>
      <use x="170.636719" xlink:href="#DejaVuSans-114"/>
      <use x="211.75" xlink:href="#DejaVuSans-115"/>
     </g>
    </g>
   </g>
   <g id="matplotlib.axis_2">
    <g id="ytick_1">
     <g id="line2d_11">
      <defs>
       <path d="M 0 0 
L -9 0 
" id="mbf7b52d1cd" style="stroke:#262626;stroke-width:1.25;"/>
      </defs>
      <g>
       <use style="fill:#262626;stroke:#262626;stroke-width:1.25;" x="90" xlink:href="#mbf7b52d1cd" y="301.39151"/>
      </g>
     </g>
     <g id="line2d_12">
      <defs>
       <path d="M 0 0 
L 9 0 
" id="m8aea52b292" style="stroke:#262626;stroke-width:1.25;"/>
      </defs>
      <g>
       <use style="fill:#262626;stroke:#262626;stroke-width:1.25;" x="648" xlink:href="#m8aea52b292" y="301.39151"/>
      </g>
     </g>
     <g id="text_7">
      <!-- 0 -->
      <g style="fill:#262626;" transform="translate(70.50125 305.570651)scale(0.11 -0.11)">
       <use xlink:href="#DejaVuSans-48"/>
      </g>
     </g>
    </g>
    <g id="ytick_2">
     <g id="line2d_13">
      <g>
       <use style="fill:#262626;stroke:#262626;stroke-width:1.25;" x="90" xlink:href="#mbf7b52d1cd" y="245.121766"/>
      </g>
     </g>
     <g id="line2d_14">
      <g>
       <use style="fill:#262626;stroke:#262626;stroke-width:1.25;" x="648" xlink:href="#m8aea52b292" y="245.121766"/>
      </g>
     </g>
     <g id="text_8">
      <!-- 500 -->
      <g style="fill:#262626;" transform="translate(56.50375 249.300906)scale(0.11 -0.11)">
       <defs>
        <path d="M 10.796875 72.90625 
L 49.515625 72.90625 
L 49.515625 64.59375 
L 19.828125 64.59375 
L 19.828125 46.734375 
Q 21.96875 47.46875 24.109375 47.828125 
Q 26.265625 48.1875 28.421875 48.1875 
Q 40.625 48.1875 47.75 41.5 
Q 54.890625 34.8125 54.890625 23.390625 
Q 54.890625 11.625 47.5625 5.09375 
Q 40.234375 -1.421875 26.90625 -1.421875 
Q 22.3125 -1.421875 17.546875 -0.640625 
Q 12.796875 0.140625 7.71875 1.703125 
L 7.71875 11.625 
Q 12.109375 9.234375 16.796875 8.0625 
Q 21.484375 6.890625 26.703125 6.890625 
Q 35.15625 6.890625 40.078125 11.328125 
Q 45.015625 15.765625 45.015625 23.390625 
Q 45.015625 31 40.078125 35.4375 
Q 35.15625 39.890625 26.703125 39.890625 
Q 22.75 39.890625 18.8125 39.015625 
Q 14.890625 38.140625 10.796875 36.28125 
z
" id="DejaVuSans-53"/>
       </defs>
       <use xlink:href="#DejaVuSans-53"/>
       <use x="63.623047" xlink:href="#DejaVuSans-48"/>
       <use x="127.246094" xlink:href="#DejaVuSans-48"/>
      </g>
     </g>
    </g>
    <g id="ytick_3">
     <g id="line2d_15">
      <g>
       <use style="fill:#262626;stroke:#262626;stroke-width:1.25;" x="90" xlink:href="#mbf7b52d1cd" y="188.852021"/>
      </g>
     </g>
     <g id="line2d_16">
      <g>
       <use style="fill:#262626;stroke:#262626;stroke-width:1.25;" x="648" xlink:href="#m8aea52b292" y="188.852021"/>
      </g>
     </g>
     <g id="text_9">
      <!-- 1000 -->
      <g style="fill:#262626;" transform="translate(49.505 193.031162)scale(0.11 -0.11)">
       <use xlink:href="#DejaVuSans-49"/>
       <use x="63.623047" xlink:href="#DejaVuSans-48"/>
       <use x="127.246094" xlink:href="#DejaVuSans-48"/>
       <use x="190.869141" xlink:href="#DejaVuSans-48"/>
      </g>
     </g>
    </g>
    <g id="ytick_4">
     <g id="line2d_17">
      <g>
       <use style="fill:#262626;stroke:#262626;stroke-width:1.25;" x="90" xlink:href="#mbf7b52d1cd" y="132.582276"/>
      </g>
     </g>
     <g id="line2d_18">
      <g>
       <use style="fill:#262626;stroke:#262626;stroke-width:1.25;" x="648" xlink:href="#m8aea52b292" y="132.582276"/>
      </g>
     </g>
     <g id="text_10">
      <!-- 1500 -->
      <g style="fill:#262626;" transform="translate(49.505 136.761417)scale(0.11 -0.11)">
       <use xlink:href="#DejaVuSans-49"/>
       <use x="63.623047" xlink:href="#DejaVuSans-53"/>
       <use x="127.246094" xlink:href="#DejaVuSans-48"/>
       <use x="190.869141" xlink:href="#DejaVuSans-48"/>
      </g>
     </g>
    </g>
    <g id="ytick_5">
     <g id="line2d_19">
      <g>
       <use style="fill:#262626;stroke:#262626;stroke-width:1.25;" x="90" xlink:href="#mbf7b52d1cd" y="76.312532"/>
      </g>
     </g>
     <g id="line2d_20">
      <g>
       <use style="fill:#262626;stroke:#262626;stroke-width:1.25;" x="648" xlink:href="#m8aea52b292" y="76.312532"/>
      </g>
     </g>
     <g id="text_11">
      <!-- 2000 -->
      <g style="fill:#262626;" transform="translate(49.505 80.491672)scale(0.11 -0.11)">
       <use xlink:href="#DejaVuSans-50"/>
       <use x="63.623047" xlink:href="#DejaVuSans-48"/>
       <use x="127.246094" xlink:href="#DejaVuSans-48"/>
       <use x="190.869141" xlink:href="#DejaVuSans-48"/>
      </g>
     </g>
    </g>
    <g id="text_12">
     <!-- Degree Day -->
     <g style="fill:#262626;" transform="translate(43.009375 214.69125)rotate(-90)scale(0.12 -0.12)">
      <defs>
       <path d="M 19.671875 64.796875 
L 19.671875 8.109375 
L 31.59375 8.109375 
Q 46.6875 8.109375 53.6875 14.9375 
Q 60.6875 21.78125 60.6875 36.53125 
Q 60.6875 51.171875 53.6875 57.984375 
Q 46.6875 64.796875 31.59375 64.796875 
z
M 9.8125 72.90625 
L 30.078125 72.90625 
Q 51.265625 72.90625 61.171875 64.09375 
Q 71.09375 55.28125 71.09375 36.53125 
Q 71.09375 17.671875 61.125 8.828125 
Q 51.171875 0 30.078125 0 
L 9.8125 0 
z
" id="DejaVuSans-68"/>
       <path d="M 45.40625 27.984375 
Q 45.40625 37.75 41.375 43.109375 
Q 37.359375 48.484375 30.078125 48.484375 
Q 22.859375 48.484375 18.828125 43.109375 
Q 14.796875 37.75 14.796875 27.984375 
Q 14.796875 18.265625 18.828125 12.890625 
Q 22.859375 7.515625 30.078125 7.515625 
Q 37.359375 7.515625 41.375 12.890625 
Q 45.40625 18.265625 45.40625 27.984375 
z
M 54.390625 6.78125 
Q 54.390625 -7.171875 48.1875 -13.984375 
Q 42 -20.796875 29.203125 -20.796875 
Q 24.46875 -20.796875 20.265625 -20.09375 
Q 16.0625 -19.390625 12.109375 -17.921875 
L 12.109375 -9.1875 
Q 16.0625 -11.328125 19.921875 -12.34375 
Q 23.78125 -13.375 27.78125 -13.375 
Q 36.625 -13.375 41.015625 -8.765625 
Q 45.40625 -4.15625 45.40625 5.171875 
L 45.40625 9.625 
Q 42.625 4.78125 38.28125 2.390625 
Q 33.9375 0 27.875 0 
Q 17.828125 0 11.671875 7.65625 
Q 5.515625 15.328125 5.515625 27.984375 
Q 5.515625 40.671875 11.671875 48.328125 
Q 17.828125 56 27.875 56 
Q 33.9375 56 38.28125 53.609375 
Q 42.625 51.21875 45.40625 46.390625 
L 45.40625 54.6875 
L 54.390625 54.6875 
z
" id="DejaVuSans-103"/>
       <path id="DejaVuSans-32"/>
       <path d="M 32.171875 -5.078125 
Q 28.375 -14.84375 24.75 -17.8125 
Q 21.140625 -20.796875 15.09375 -20.796875 
L 7.90625 -20.796875 
L 7.90625 -13.28125 
L 13.1875 -13.28125 
Q 16.890625 -13.28125 18.9375 -11.515625 
Q 21 -9.765625 23.484375 -3.21875 
L 25.09375 0.875 
L 2.984375 54.6875 
L 12.5 54.6875 
L 29.59375 11.921875 
L 46.6875 54.6875 
L 56.203125 54.6875 
z
" id="DejaVuSans-121"/>
      </defs>
      <use xlink:href="#DejaVuSans-68"/>
      <use x="77.001953" xlink:href="#DejaVuSans-101"/>
      <use x="138.525391" xlink:href="#DejaVuSans-103"/>
      <use x="202.001953" xlink:href="#DejaVuSans-114"/>
      <use x="240.865234" xlink:href="#DejaVuSans-101"/>
      <use x="302.388672" xlink:href="#DejaVuSans-101"/>
      <use x="363.912109" xlink:href="#DejaVuSans-32"/>
      <use x="395.699219" xlink:href="#DejaVuSans-68"/>
      <use x="472.701172" xlink:href="#DejaVuSans-97"/>
      <use x="533.980469" xlink:href="#DejaVuSans-121"/>
     </g>
    </g>
   </g>
   <g id="PolyCollection_1">
    <defs>
     <path d="M 90 -68.884902 
L 90 -77.293371 
L 95.653495 -107.394869 
L 101.306991 -93.177468 
L 106.960486 -98.295997 
L 112.613982 -96.459916 
L 118.267477 -93.570845 
L 123.920973 -87.751048 
L 129.574468 -102.458707 
L 135.227964 -115.045995 
L 140.881459 -106.010271 
L 146.534954 -109.637814 
L 152.18845 -107.905741 
L 157.841945 -108.244213 
L 163.495441 -111.445732 
L 169.148936 -98.937704 
L 174.802432 -112.153066 
L 180.455927 -119.191891 
L 186.109422 -98.78188 
L 191.762918 -107.401763 
L 197.416413 -118.405782 
L 203.069909 -116.766642 
L 208.723404 -111.179489 
L 214.3769 -115.660565 
L 220.030395 -132.4447 
L 225.683891 -118.247212 
L 231.337386 -121.149808 
L 236.990881 -115.369829 
L 242.644377 -123.506006 
L 248.297872 -134.49463 
L 253.951368 -115.964188 
L 259.604863 -126.919843 
L 265.258359 -130.926636 
L 270.911854 -122.579657 
L 276.56535 -136.008274 
L 282.218845 -133.57974 
L 287.87234 -137.499717 
L 293.525836 -143.957514 
L 299.179331 -160.513188 
L 304.832827 -139.289059 
L 310.486322 -148.929747 
L 316.139818 -149.43957 
L 321.793313 -168.029627 
L 327.446809 -150.121813 
L 333.100304 -143.61287 
L 338.753799 -150.038816 
L 344.407295 -169.531514 
L 350.06079 -167.75675 
L 355.714286 -162.918844 
L 361.367781 -173.311967 
L 367.021277 -174.66106 
L 372.674772 -192.554125 
L 378.328267 -178.230434 
L 383.981763 -172.496069 
L 389.635258 -173.140743 
L 395.288754 -195.469321 
L 400.942249 -180.975677 
L 406.595745 -182.568287 
L 412.24924 -196.136711 
L 417.902736 -190.258814 
L 423.556231 -203.132674 
L 429.209726 -196.872877 
L 434.863222 -212.023741 
L 440.516717 -219.263437 
L 446.170213 -218.528892 
L 451.823708 -222.687983 
L 457.477204 -211.896151 
L 463.130699 -227.954378 
L 468.784195 -227.469198 
L 474.43769 -221.269575 
L 480.091185 -235.058186 
L 485.744681 -240.295597 
L 491.398176 -222.17463 
L 497.051672 -237.034935 
L 502.705167 -262.850031 
L 508.358663 -256.853888 
L 514.012158 -245.415596 
L 519.665653 -233.317118 
L 525.319149 -233.646665 
L 530.972644 -239.718668 
L 536.62614 -235.322159 
L 542.279635 -255.257917 
L 547.933131 -262.493851 
L 553.586626 -252.807556 
L 559.240122 -260.251231 
L 564.893617 -268.691132 
L 570.547112 -279.373687 
L 576.200608 -277.275066 
L 581.854103 -272.328218 
L 587.507599 -270.281887 
L 593.161094 -287.161164 
L 598.81459 -296.880831 
L 604.468085 -285.914348 
L 610.121581 -288.751004 
L 615.775076 -291.218084 
L 621.428571 -304.445455 
L 621.428571 -200.598168 
L 621.428571 -200.598168 
L 615.775076 -195.126341 
L 610.121581 -198.246384 
L 604.468085 -195.984718 
L 598.81459 -195.85393 
L 593.161094 -194.296111 
L 587.507599 -191.516892 
L 581.854103 -192.173199 
L 576.200608 -194.603455 
L 570.547112 -191.877639 
L 564.893617 -184.960788 
L 559.240122 -177.598209 
L 553.586626 -183.651979 
L 547.933131 -185.124183 
L 542.279635 -173.322621 
L 536.62614 -165.537815 
L 530.972644 -168.551773 
L 525.319149 -164.516466 
L 519.665653 -185.118991 
L 514.012158 -182.60681 
L 508.358663 -171.475836 
L 502.705167 -165.060403 
L 497.051672 -166.560591 
L 491.398176 -172.211665 
L 485.744681 -158.050925 
L 480.091185 -162.277413 
L 474.43769 -159.709446 
L 468.784195 -153.236884 
L 463.130699 -157.812878 
L 457.477204 -153.456042 
L 451.823708 -151.783802 
L 446.170213 -151.475135 
L 440.516717 -148.239525 
L 434.863222 -155.488572 
L 429.209726 -149.570993 
L 423.556231 -145.752709 
L 417.902736 -145.999994 
L 412.24924 -139.814486 
L 406.595745 -131.291959 
L 400.942249 -139.617694 
L 395.288754 -124.922658 
L 389.635258 -134.997657 
L 383.981763 -132.131778 
L 378.328267 -136.439582 
L 372.674772 -125.052305 
L 367.021277 -123.997703 
L 361.367781 -128.009962 
L 355.714286 -127.647736 
L 350.06079 -125.563561 
L 344.407295 -115.466859 
L 338.753799 -119.922176 
L 333.100304 -117.736124 
L 327.446809 -121.34783 
L 321.793313 -121.418505 
L 316.139818 -109.805783 
L 310.486322 -113.621482 
L 304.832827 -106.333501 
L 299.179331 -117.041337 
L 293.525836 -111.802967 
L 287.87234 -106.767401 
L 282.218845 -100.101712 
L 276.56535 -105.764894 
L 270.911854 -99.878274 
L 265.258359 -97.658222 
L 259.604863 -95.53723 
L 253.951368 -96.907445 
L 248.297872 -93.710662 
L 242.644377 -89.354576 
L 236.990881 -95.93124 
L 231.337386 -85.495888 
L 225.683891 -93.238982 
L 220.030395 -91.621802 
L 214.3769 -87.75595 
L 208.723404 -88.096223 
L 203.069909 -92.404964 
L 197.416413 -83.653649 
L 191.762918 -77.874137 
L 186.109422 -76.602213 
L 180.455927 -88.641921 
L 174.802432 -84.41335 
L 169.148936 -75.081818 
L 163.495441 -80.046773 
L 157.841945 -80.58614 
L 152.18845 -71.764184 
L 146.534954 -62.746528 
L 140.881459 -73.212449 
L 135.227964 -75.70318 
L 129.574468 -74.73247 
L 123.920973 -57.354545 
L 118.267477 -67.091953 
L 112.613982 -73.105611 
L 106.960486 -67.622564 
L 101.306991 -67.032236 
L 95.653495 -67.059787 
L 90 -68.884902 
z
" id="m7119f1f515" style="stroke:#ff0000;stroke-opacity:0.2;"/>
    </defs>
    <g clip-path="url(#pd0997a0aaa)">
     <use style="fill:#ff0000;fill-opacity:0.2;stroke:#ff0000;stroke-opacity:0.2;" x="0" xlink:href="#m7119f1f515" y="360"/>
    </g>
   </g>
   <g id="PolyCollection_2">
    <defs>
     <path d="M 90 -70.385618 
L 90 -78.535112 
L 95.653495 -88.195881 
L 101.306991 -86.952915 
L 106.960486 -87.868013 
L 112.613982 -98.481908 
L 118.267477 -92.634019 
L 123.920973 -92.636612 
L 129.574468 -94.242685 
L 135.227964 -95.185938 
L 140.881459 -115.153684 
L 146.534954 -102.833945 
L 152.18845 -102.935501 
L 157.841945 -94.786956 
L 163.495441 -95.108186 
L 169.148936 -107.389055 
L 174.802432 -125.159294 
L 180.455927 -99.972681 
L 186.109422 -109.391705 
L 191.762918 -103.763227 
L 197.416413 -117.966826 
L 203.069909 -108.919676 
L 208.723404 -126.579981 
L 214.3769 -104.62279 
L 220.030395 -107.317218 
L 225.683891 -129.529161 
L 231.337386 -109.716548 
L 236.990881 -116.626746 
L 242.644377 -135.036167 
L 248.297872 -134.383286 
L 253.951368 -109.237914 
L 259.604863 -125.112528 
L 265.258359 -123.397032 
L 270.911854 -140.779295 
L 276.56535 -121.21223 
L 282.218845 -121.343531 
L 287.87234 -117.927007 
L 293.525836 -128.814733 
L 299.179331 -142.426656 
L 304.832827 -128.045032 
L 310.486322 -138.794562 
L 316.139818 -127.443522 
L 321.793313 -131.858651 
L 327.446809 -141.404962 
L 333.100304 -145.009628 
L 338.753799 -138.160337 
L 344.407295 -134.650373 
L 350.06079 -145.747657 
L 355.714286 -143.6381 
L 361.367781 -154.544256 
L 367.021277 -158.377138 
L 372.674772 -139.691332 
L 378.328267 -140.142899 
L 383.981763 -146.459537 
L 389.635258 -150.559927 
L 395.288754 -164.872619 
L 400.942249 -157.122058 
L 406.595745 -156.586996 
L 412.24924 -163.52887 
L 417.902736 -151.230417 
L 423.556231 -156.199372 
L 429.209726 -157.03621 
L 434.863222 -153.816933 
L 440.516717 -158.99048 
L 446.170213 -171.129839 
L 451.823708 -173.321012 
L 457.477204 -171.463383 
L 463.130699 -170.424019 
L 468.784195 -163.778854 
L 474.43769 -158.18242 
L 480.091185 -165.13314 
L 485.744681 -177.69552 
L 491.398176 -172.115975 
L 497.051672 -167.93729 
L 502.705167 -176.966453 
L 508.358663 -189.484444 
L 514.012158 -180.819329 
L 519.665653 -165.335309 
L 525.319149 -170.32542 
L 530.972644 -170.56388 
L 536.62614 -168.731591 
L 542.279635 -172.640025 
L 547.933131 -165.014193 
L 553.586626 -175.602402 
L 559.240122 -179.496067 
L 564.893617 -181.735583 
L 570.547112 -175.116019 
L 576.200608 -168.545542 
L 581.854103 -172.662276 
L 587.507599 -169.108969 
L 593.161094 -169.057297 
L 598.81459 -172.269708 
L 604.468085 -174.084112 
L 610.121581 -174.659056 
L 615.775076 -170.616275 
L 621.428571 -173.089813 
L 621.428571 -109.181581 
L 621.428571 -109.181581 
L 615.775076 -125.584578 
L 610.121581 -125.284249 
L 604.468085 -120.616565 
L 598.81459 -134.837523 
L 593.161094 -112.628405 
L 587.507599 -123.793492 
L 581.854103 -117.858581 
L 576.200608 -118.990338 
L 570.547112 -122.238531 
L 564.893617 -127.121335 
L 559.240122 -122.770107 
L 553.586626 -110.69973 
L 547.933131 -108.924249 
L 542.279635 -108.612271 
L 536.62614 -124.007033 
L 530.972644 -119.212674 
L 525.319149 -123.102051 
L 519.665653 -118.731966 
L 514.012158 -121.320698 
L 508.358663 -121.317776 
L 502.705167 -126.447709 
L 497.051672 -122.246438 
L 491.398176 -115.386773 
L 485.744681 -114.788428 
L 480.091185 -118.813156 
L 474.43769 -119.09007 
L 468.784195 -126.175402 
L 463.130699 -121.325283 
L 457.477204 -110.164803 
L 451.823708 -115.89218 
L 446.170213 -112.849219 
L 440.516717 -107.040852 
L 434.863222 -115.096826 
L 429.209726 -108.989822 
L 423.556231 -118.500733 
L 417.902736 -115.466441 
L 412.24924 -110.473557 
L 406.595745 -108.387322 
L 400.942249 -108.579965 
L 395.288754 -117.027399 
L 389.635258 -109.714087 
L 383.981763 -112.441323 
L 378.328267 -100.932102 
L 372.674772 -100.085439 
L 367.021277 -113.403249 
L 361.367781 -106.936621 
L 355.714286 -109.530864 
L 350.06079 -103.537478 
L 344.407295 -103.766603 
L 338.753799 -99.201422 
L 333.100304 -104.064596 
L 327.446809 -95.210829 
L 321.793313 -100.00305 
L 316.139818 -89.298278 
L 310.486322 -94.234103 
L 304.832827 -97.045717 
L 299.179331 -94.794512 
L 293.525836 -91.555789 
L 287.87234 -94.679503 
L 282.218845 -94.077596 
L 276.56535 -96.026443 
L 270.911854 -91.424618 
L 265.258359 -88.340264 
L 259.604863 -84.509075 
L 253.951368 -88.778018 
L 248.297872 -88.358764 
L 242.644377 -91.919408 
L 236.990881 -94.007073 
L 231.337386 -87.777272 
L 225.683891 -83.274383 
L 220.030395 -86.236143 
L 214.3769 -77.959479 
L 208.723404 -81.473707 
L 203.069909 -86.232549 
L 197.416413 -82.00949 
L 191.762918 -83.275959 
L 186.109422 -71.675548 
L 180.455927 -80.496407 
L 174.802432 -79.100633 
L 169.148936 -82.267225 
L 163.495441 -81.851327 
L 157.841945 -78.245374 
L 152.18845 -80.830088 
L 146.534954 -74.495875 
L 140.881459 -72.382535 
L 135.227964 -79.064148 
L 129.574468 -73.983168 
L 123.920973 -70.325905 
L 118.267477 -70.004656 
L 112.613982 -71.202904 
L 106.960486 -65.553034 
L 101.306991 -66.232954 
L 95.653495 -62.77438 
L 90 -70.385618 
z
" id="m0013f0b379" style="stroke:#0000ff;stroke-opacity:0.2;"/>
    </defs>
    <g clip-path="url(#pd0997a0aaa)">
     <use style="fill:#0000ff;fill-opacity:0.2;stroke:#0000ff;stroke-opacity:0.2;" x="0" xlink:href="#m0013f0b379" y="360"/>
    </g>
   </g>
   <g id="line2d_21">
    <path clip-path="url(#pd0997a0aaa)" d="M 90 286.790589 
L 95.653495 282.323115 
L 101.306991 281.055883 
L 106.960486 277.181251 
L 112.613982 277.024309 
L 118.267477 280.192729 
L 123.920973 282.933036 
L 129.574468 273.370714 
L 135.227964 269.942394 
L 140.881459 270.339565 
L 146.534954 275.394342 
L 152.18845 273.051131 
L 157.841945 262.836483 
L 163.495441 268.513505 
L 169.148936 271.865177 
L 174.802432 265.251501 
L 180.455927 258.890431 
L 186.109422 269.89836 
L 191.762918 265.523934 
L 197.416413 264.574074 
L 203.069909 258.646301 
L 208.723404 258.549072 
L 214.3769 257.444373 
L 220.030395 255.150006 
L 225.683891 258.417476 
L 231.337386 260.26298 
L 236.990881 255.33084 
L 242.644377 253.035988 
L 248.297872 247.776975 
L 253.951368 253.812086 
L 259.604863 246.644695 
L 265.258359 244.718978 
L 270.911854 250.128482 
L 276.56535 236.88802 
L 282.218845 242.848071 
L 287.87234 235.84147 
L 293.525836 235.423543 
L 299.179331 226.786581 
L 304.832827 233.734329 
L 310.486322 234.81267 
L 316.139818 230.964123 
L 321.793313 221.107813 
L 327.446809 222.633512 
L 333.100304 229.173878 
L 338.753799 226.807449 
L 344.407295 225.142993 
L 350.06079 216.371616 
L 355.714286 213.620222 
L 361.367781 207.535019 
L 367.021277 210.659638 
L 372.674772 208.075871 
L 378.328267 206.366905 
L 383.981763 208.268779 
L 389.635258 206.02025 
L 395.288754 200.024439 
L 400.942249 200.761907 
L 406.595745 204.697282 
L 412.24924 193.906305 
L 417.902736 194.160242 
L 423.556231 185.840071 
L 429.209726 187.26443 
L 434.863222 184.527518 
L 440.516717 184.684933 
L 446.170213 180.15421 
L 451.823708 178.453781 
L 457.477204 177.269198 
L 463.130699 171.824527 
L 468.784195 171.012797 
L 474.43769 174.69547 
L 480.091185 169.959506 
L 485.744681 165.431295 
L 491.398176 163.588157 
L 497.051672 163.319175 
L 502.705167 165.455522 
L 508.358663 162.828814 
L 514.012158 151.461348 
L 519.665653 150.703608 
L 525.319149 157.377062 
L 530.972644 156.965658 
L 536.62614 163.511866 
L 542.279635 152.660168 
L 547.933131 142.454861 
L 553.586626 144.413125 
L 559.240122 141.903836 
L 564.893617 141.206301 
L 570.547112 128.258199 
L 576.200608 131.618396 
L 581.854103 129.63763 
L 587.507599 133.51579 
L 593.161094 127.36638 
L 598.81459 122.981667 
L 604.468085 119.88673 
L 610.121581 122.135996 
L 615.775076 122.844967 
L 621.428571 120.835818 
" style="fill:none;stroke:#ff0000;stroke-linecap:round;stroke-opacity:0.7;stroke-width:4;"/>
   </g>
   <g id="line2d_22">
    <path clip-path="url(#pd0997a0aaa)" d="M 90 285.267967 
L 95.653495 288.54927 
L 101.306991 283.617144 
L 106.960486 281.53161 
L 112.613982 277.925085 
L 118.267477 277.579824 
L 123.920973 277.901228 
L 129.574468 273.689125 
L 135.227964 272.549586 
L 140.881459 272.883152 
L 146.534954 273.058306 
L 152.18845 270.227008 
L 157.841945 275.067345 
L 163.495441 272.717633 
L 169.148936 262.868233 
L 174.802432 267.354957 
L 180.455927 271.848368 
L 186.109422 270.884195 
L 191.762918 270.515852 
L 197.416413 262.223243 
L 203.069909 261.971152 
L 208.723404 264.946519 
L 214.3769 262.282001 
L 220.030395 264.877637 
L 225.683891 261.251982 
L 231.337386 261.437336 
L 236.990881 255.703623 
L 242.644377 250.00212 
L 248.297872 256.17257 
L 253.951368 260.639516 
L 259.604863 255.002111 
L 265.258359 249.209233 
L 270.911854 245.931278 
L 276.56535 249.049972 
L 282.218845 252.567052 
L 287.87234 256.152968 
L 293.525836 247.12389 
L 299.179331 243.517117 
L 304.832827 240.791764 
L 310.486322 243.050078 
L 316.139818 251.814741 
L 321.793313 245.40013 
L 327.446809 245.332155 
L 333.100304 234.869774 
L 338.753799 242.84108 
L 344.407295 244.667339 
L 350.06079 235.233794 
L 355.714286 235.350987 
L 361.367781 233.273195 
L 367.021277 232.987292 
L 372.674772 246.681609 
L 378.328267 239.2307 
L 383.981763 233.107216 
L 389.635258 234.003 
L 395.288754 223.849209 
L 400.942249 231.851285 
L 406.595745 233.546628 
L 412.24924 231.356976 
L 417.902736 234.147036 
L 423.556231 227.687393 
L 429.209726 225.977213 
L 434.863222 231.953679 
L 440.516717 233.859623 
L 446.170213 223.976618 
L 451.823708 220.926798 
L 457.477204 221.104074 
L 463.130699 222.64172 
L 468.784195 218.539605 
L 474.43769 221.670494 
L 480.091185 225.795323 
L 485.744681 220.838562 
L 491.398176 220.825652 
L 497.051672 221.735015 
L 502.705167 217.346368 
L 508.358663 212.107868 
L 514.012158 214.15827 
L 519.665653 224.617216 
L 525.319149 217.220068 
L 530.972644 216.389575 
L 536.62614 215.881324 
L 542.279635 218.503321 
L 547.933131 224.286726 
L 553.586626 221.300304 
L 559.240122 214.886992 
L 564.893617 210.27054 
L 570.547112 219.669514 
L 576.200608 219.01738 
L 581.854103 219.896028 
L 587.507599 223.599269 
L 593.161094 219.942587 
L 598.81459 210.319923 
L 604.468085 216.536405 
L 610.121581 215.655464 
L 615.775076 214.463407 
L 621.428571 216.446238 
" style="fill:none;stroke:#0000ff;stroke-linecap:round;stroke-opacity:0.7;stroke-width:4;"/>
   </g>
   <g id="patch_3">
    <path d="M 90 315 
L 90 43.2 
" style="fill:none;stroke:#262626;stroke-linecap:square;stroke-linejoin:miter;stroke-width:1.5;"/>
   </g>
   <g id="patch_4">
    <path d="M 648 315 
L 648 43.2 
" style="fill:none;stroke:#262626;stroke-linecap:square;stroke-linejoin:miter;stroke-width:1.5;"/>
   </g>
   <g id="patch_5">
    <path d="M 90 315 
L 648 315 
" style="fill:none;stroke:#262626;stroke-linecap:square;stroke-linejoin:miter;stroke-width:1.5;"/>
   </g>
   <g id="patch_6">
    <path d="M 90 43.2 
L 648 43.2 
" style="fill:none;stroke:#262626;stroke-linecap:square;stroke-linejoin:miter;stroke-width:1.5;"/>
   </g>
   <g id="text_13">
    <!-- CDD Change   -->
    <g style="fill:#262626;" transform="translate(90 37.2)scale(0.1 -0.1)">
     <defs>
      <path d="M 64.40625 67.28125 
L 64.40625 56.890625 
Q 59.421875 61.53125 53.78125 63.8125 
Q 48.140625 66.109375 41.796875 66.109375 
Q 29.296875 66.109375 22.65625 58.46875 
Q 16.015625 50.828125 16.015625 36.375 
Q 16.015625 21.96875 22.65625 14.328125 
Q 29.296875 6.6875 41.796875 6.6875 
Q 48.140625 6.6875 53.78125 8.984375 
Q 59.421875 11.28125 64.40625 15.921875 
L 64.40625 5.609375 
Q 59.234375 2.09375 53.4375 0.328125 
Q 47.65625 -1.421875 41.21875 -1.421875 
Q 24.65625 -1.421875 15.125 8.703125 
Q 5.609375 18.84375 5.609375 36.375 
Q 5.609375 53.953125 15.125 64.078125 
Q 24.65625 74.21875 41.21875 74.21875 
Q 47.75 74.21875 53.53125 72.484375 
Q 59.328125 70.75 64.40625 67.28125 
z
" id="DejaVuSans-67"/>
      <path d="M 54.890625 33.015625 
L 54.890625 0 
L 45.90625 0 
L 45.90625 32.71875 
Q 45.90625 40.484375 42.875 44.328125 
Q 39.84375 48.1875 33.796875 48.1875 
Q 26.515625 48.1875 22.3125 43.546875 
Q 18.109375 38.921875 18.109375 30.90625 
L 18.109375 0 
L 9.078125 0 
L 9.078125 75.984375 
L 18.109375 75.984375 
L 18.109375 46.1875 
Q 21.34375 51.125 25.703125 53.5625 
Q 30.078125 56 35.796875 56 
Q 45.21875 56 50.046875 50.171875 
Q 54.890625 44.34375 54.890625 33.015625 
z
" id="DejaVuSans-104"/>
      <path d="M 54.890625 33.015625 
L 54.890625 0 
L 45.90625 0 
L 45.90625 32.71875 
Q 45.90625 40.484375 42.875 44.328125 
Q 39.84375 48.1875 33.796875 48.1875 
Q 26.515625 48.1875 22.3125 43.546875 
Q 18.109375 38.921875 18.109375 30.90625 
L 18.109375 0 
L 9.078125 0 
L 9.078125 54.6875 
L 18.109375 54.6875 
L 18.109375 46.1875 
Q 21.34375 51.125 25.703125 53.5625 
Q 30.078125 56 35.796875 56 
Q 45.21875 56 50.046875 50.171875 
Q 54.890625 44.34375 54.890625 33.015625 
z
" id="DejaVuSans-110"/>
     </defs>
     <use xlink:href="#DejaVuSans-67"/>
     <use x="69.824219" xlink:href="#DejaVuSans-68"/>
     <use x="146.826172" xlink:href="#DejaVuSans-68"/>
     <use x="223.828125" xlink:href="#DejaVuSans-32"/>
     <use x="255.615234" xlink:href="#DejaVuSans-67"/>
     <use x="325.439453" xlink:href="#DejaVuSans-104"/>
     <use x="388.818359" xlink:href="#DejaVuSans-97"/>
     <use x="450.097656" xlink:href="#DejaVuSans-110"/>
     <use x="513.476562" xlink:href="#DejaVuSans-103"/>
     <use x="576.953125" xlink:href="#DejaVuSans-101"/>
     <use x="638.476562" xlink:href="#DejaVuSans-32"/>
     <use x="670.263672" xlink:href="#DejaVuSans-32"/>
    </g>
   </g>
   <g id="text_14">
    <!-- Reference:1971-2000 -->
    <g style="fill:#262626;" transform="translate(539.770313 37.2)scale(0.1 -0.1)">
     <defs>
      <path d="M 44.390625 34.1875 
Q 47.5625 33.109375 50.5625 29.59375 
Q 53.5625 26.078125 56.59375 19.921875 
L 66.609375 0 
L 56 0 
L 46.6875 18.703125 
Q 43.0625 26.03125 39.671875 28.421875 
Q 36.28125 30.8125 30.421875 30.8125 
L 19.671875 30.8125 
L 19.671875 0 
L 9.8125 0 
L 9.8125 72.90625 
L 32.078125 72.90625 
Q 44.578125 72.90625 50.734375 67.671875 
Q 56.890625 62.453125 56.890625 51.90625 
Q 56.890625 45.015625 53.6875 40.46875 
Q 50.484375 35.9375 44.390625 34.1875 
z
M 19.671875 64.796875 
L 19.671875 38.921875 
L 32.078125 38.921875 
Q 39.203125 38.921875 42.84375 42.21875 
Q 46.484375 45.515625 46.484375 51.90625 
Q 46.484375 58.296875 42.84375 61.546875 
Q 39.203125 64.796875 32.078125 64.796875 
z
" id="DejaVuSans-82"/>
      <path d="M 37.109375 75.984375 
L 37.109375 68.5 
L 28.515625 68.5 
Q 23.6875 68.5 21.796875 66.546875 
Q 19.921875 64.59375 19.921875 59.515625 
L 19.921875 54.6875 
L 34.71875 54.6875 
L 34.71875 47.703125 
L 19.921875 47.703125 
L 19.921875 0 
L 10.890625 0 
L 10.890625 47.703125 
L 2.296875 47.703125 
L 2.296875 54.6875 
L 10.890625 54.6875 
L 10.890625 58.5 
Q 10.890625 67.625 15.140625 71.796875 
Q 19.390625 75.984375 28.609375 75.984375 
z
" id="DejaVuSans-102"/>
      <path d="M 48.78125 52.59375 
L 48.78125 44.1875 
Q 44.96875 46.296875 41.140625 47.34375 
Q 37.3125 48.390625 33.40625 48.390625 
Q 24.65625 48.390625 19.8125 42.84375 
Q 14.984375 37.3125 14.984375 27.296875 
Q 14.984375 17.28125 19.8125 11.734375 
Q 24.65625 6.203125 33.40625 6.203125 
Q 37.3125 6.203125 41.140625 7.25 
Q 44.96875 8.296875 48.78125 10.40625 
L 48.78125 2.09375 
Q 45.015625 0.34375 40.984375 -0.53125 
Q 36.96875 -1.421875 32.421875 -1.421875 
Q 20.0625 -1.421875 12.78125 6.34375 
Q 5.515625 14.109375 5.515625 27.296875 
Q 5.515625 40.671875 12.859375 48.328125 
Q 20.21875 56 33.015625 56 
Q 37.15625 56 41.109375 55.140625 
Q 45.0625 54.296875 48.78125 52.59375 
z
" id="DejaVuSans-99"/>
      <path d="M 11.71875 12.40625 
L 22.015625 12.40625 
L 22.015625 0 
L 11.71875 0 
z
M 11.71875 51.703125 
L 22.015625 51.703125 
L 22.015625 39.3125 
L 11.71875 39.3125 
z
" id="DejaVuSans-58"/>
      <path d="M 10.984375 1.515625 
L 10.984375 10.5 
Q 14.703125 8.734375 18.5 7.8125 
Q 22.3125 6.890625 25.984375 6.890625 
Q 35.75 6.890625 40.890625 13.453125 
Q 46.046875 20.015625 46.78125 33.40625 
Q 43.953125 29.203125 39.59375 26.953125 
Q 35.25 24.703125 29.984375 24.703125 
Q 19.046875 24.703125 12.671875 31.3125 
Q 6.296875 37.9375 6.296875 49.421875 
Q 6.296875 60.640625 12.9375 67.421875 
Q 19.578125 74.21875 30.609375 74.21875 
Q 43.265625 74.21875 49.921875 64.515625 
Q 56.59375 54.828125 56.59375 36.375 
Q 56.59375 19.140625 48.40625 8.859375 
Q 40.234375 -1.421875 26.421875 -1.421875 
Q 22.703125 -1.421875 18.890625 -0.6875 
Q 15.09375 0.046875 10.984375 1.515625 
z
M 30.609375 32.421875 
Q 37.25 32.421875 41.125 36.953125 
Q 45.015625 41.5 45.015625 49.421875 
Q 45.015625 57.28125 41.125 61.84375 
Q 37.25 66.40625 30.609375 66.40625 
Q 23.96875 66.40625 20.09375 61.84375 
Q 16.21875 57.28125 16.21875 49.421875 
Q 16.21875 41.5 20.09375 36.953125 
Q 23.96875 32.421875 30.609375 32.421875 
z
" id="DejaVuSans-57"/>
      <path d="M 8.203125 72.90625 
L 55.078125 72.90625 
L 55.078125 68.703125 
L 28.609375 0 
L 18.3125 0 
L 43.21875 64.59375 
L 8.203125 64.59375 
z
" id="DejaVuSans-55"/>
      <path d="M 4.890625 31.390625 
L 31.203125 31.390625 
L 31.203125 23.390625 
L 4.890625 23.390625 
z
" id="DejaVuSans-45"/>
     </defs>
     <use xlink:href="#DejaVuSans-82"/>
     <use x="64.982422" xlink:href="#DejaVuSans-101"/>
     <use x="126.505859" xlink:href="#DejaVuSans-102"/>
     <use x="161.710938" xlink:href="#DejaVuSans-101"/>
     <use x="223.234375" xlink:href="#DejaVuSans-114"/>
     <use x="262.097656" xlink:href="#DejaVuSans-101"/>
     <use x="323.621094" xlink:href="#DejaVuSans-110"/>
     <use x="387" xlink:href="#DejaVuSans-99"/>
     <use x="441.980469" xlink:href="#DejaVuSans-101"/>
     <use x="503.503906" xlink:href="#DejaVuSans-58"/>
     <use x="537.195312" xlink:href="#DejaVuSans-49"/>
     <use x="600.818359" xlink:href="#DejaVuSans-57"/>
     <use x="664.441406" xlink:href="#DejaVuSans-55"/>
     <use x="728.064453" xlink:href="#DejaVuSans-49"/>
     <use x="791.6875" xlink:href="#DejaVuSans-45"/>
     <use x="827.771484" xlink:href="#DejaVuSans-50"/>
     <use x="891.394531" xlink:href="#DejaVuSans-48"/>
     <use x="955.017578" xlink:href="#DejaVuSans-48"/>
     <use x="1018.640625" xlink:href="#DejaVuSans-48"/>
    </g>
   </g>
   <g id="legend_1">
    <g id="patch_7">
     <path d="M 97.7 84.291875 
L 199.9175 84.291875 
Q 202.1175 84.291875 202.1175 82.091875 
L 202.1175 50.9 
Q 202.1175 48.7 199.9175 48.7 
L 97.7 48.7 
Q 95.5 48.7 95.5 50.9 
L 95.5 82.091875 
Q 95.5 84.291875 97.7 84.291875 
z
" style="fill:#ffffff;opacity:0.8;stroke:#cccccc;stroke-linejoin:miter;"/>
    </g>
    <g id="line2d_23">
     <path d="M 99.9 57.608281 
L 121.9 57.608281 
" style="fill:none;stroke:#ff0000;stroke-linecap:round;stroke-opacity:0.7;stroke-width:4;"/>
    </g>
    <g id="line2d_24"/>
    <g id="text_15">
     <!-- CDD RCP8.5 -->
     <g style="fill:#262626;" transform="translate(130.7 61.458281)scale(0.11 -0.11)">
      <defs>
       <path d="M 19.671875 64.796875 
L 19.671875 37.40625 
L 32.078125 37.40625 
Q 38.96875 37.40625 42.71875 40.96875 
Q 46.484375 44.53125 46.484375 51.125 
Q 46.484375 57.671875 42.71875 61.234375 
Q 38.96875 64.796875 32.078125 64.796875 
z
M 9.8125 72.90625 
L 32.078125 72.90625 
Q 44.34375 72.90625 50.609375 67.359375 
Q 56.890625 61.8125 56.890625 51.125 
Q 56.890625 40.328125 50.609375 34.8125 
Q 44.34375 29.296875 32.078125 29.296875 
L 19.671875 29.296875 
L 19.671875 0 
L 9.8125 0 
z
" id="DejaVuSans-80"/>
       <path d="M 10.6875 12.40625 
L 21 12.40625 
L 21 0 
L 10.6875 0 
z
" id="DejaVuSans-46"/>
      </defs>
      <use xlink:href="#DejaVuSans-67"/>
      <use x="69.824219" xlink:href="#DejaVuSans-68"/>
      <use x="146.826172" xlink:href="#DejaVuSans-68"/>
      <use x="223.828125" xlink:href="#DejaVuSans-32"/>
      <use x="255.615234" xlink:href="#DejaVuSans-82"/>
      <use x="320.097656" xlink:href="#DejaVuSans-67"/>
      <use x="389.921875" xlink:href="#DejaVuSans-80"/>
      <use x="450.224609" xlink:href="#DejaVuSans-56"/>
      <use x="513.847656" xlink:href="#DejaVuSans-46"/>
      <use x="545.634766" xlink:href="#DejaVuSans-53"/>
     </g>
    </g>
    <g id="line2d_25">
     <path d="M 99.9 73.754219 
L 121.9 73.754219 
" style="fill:none;stroke:#0000ff;stroke-linecap:round;stroke-opacity:0.7;stroke-width:4;"/>
    </g>
    <g id="line2d_26"/>
    <g id="text_16">
     <!-- CDD RCP4.5 -->
     <g style="fill:#262626;" transform="translate(130.7 77.604219)scale(0.11 -0.11)">
      <use xlink:href="#DejaVuSans-67"/>
      <use x="69.824219" xlink:href="#DejaVuSans-68"/>
      <use x="146.826172" xlink:href="#DejaVuSans-68"/>
      <use x="223.828125" xlink:href="#DejaVuSans-32"/>
      <use x="255.615234" xlink:href="#DejaVuSans-82"/>
      <use x="320.097656" xlink:href="#DejaVuSans-67"/>
      <use x="389.921875" xlink:href="#DejaVuSans-80"/>
      <use x="450.224609" xlink:href="#DejaVuSans-52"/>
      <use x="513.847656" xlink:href="#DejaVuSans-46"/>
      <use x="545.634766" xlink:href="#DejaVuSans-53"/>
     </g>
    </g>
   </g>
  </g>
 </g>
 <defs>
  <clipPath id="pd0997a0aaa">
   <rect height="271.8" width="558" x="90" y="43.2"/>
  </clipPath>
 </defs>
</svg>
