<?xml version="1.0" encoding="utf-8" standalone="no"?>
<!DOCTYPE svg PUBLIC "-//W3C//DTD SVG 1.1//EN"
  "http://www.w3.org/Graphics/SVG/1.1/DTD/svg11.dtd">
<!-- Created with matplotlib (https://matplotlib.org/) -->
<svg height="360pt" version="1.1" viewBox="0 0 720 360" width="720pt" xmlns="http://www.w3.org/2000/svg" xmlns:xlink="http://www.w3.org/1999/xlink">
 <metadata>
  <rdf:RDF xmlns:cc="http://creativecommons.org/ns#" xmlns:dc="http://purl.org/dc/elements/1.1/" xmlns:rdf="http://www.w3.org/1999/02/22-rdf-syntax-ns#">
   <cc:Work>
    <dc:type rdf:resource="http://purl.org/dc/dcmitype/StillImage"/>
    <dc:date>2023-02-02T23:49:13.869929</dc:date>
    <dc:format>image/svg+xml</dc:format>
    <dc:creator>
     <cc:Agent>
      <dc:title>Matplotlib v3.3.4, https://matplotlib.org/</dc:title>
     </cc:Agent>
    </dc:creator>
   </cc:Work>
  </rdf:RDF>
 </metadata>
 <defs>
  <style type="text/css">*{stroke-linecap:butt;stroke-linejoin:round;}</style>
 </defs>
 <g id="figure_1">
  <g id="patch_1">
   <path d="M 0 360 
L 720 360 
L 720 0 
L 0 0 
z
" style="fill:#ffffff;"/>
  </g>
  <g id="axes_1">
   <g id="patch_2">
    <path d="M 90 315 
L 648 315 
L 648 43.2 
L 90 43.2 
z
" style="fill:#ffffff;"/>
   </g>
   <g id="matplotlib.axis_1">
    <g id="xtick_1">
     <g id="line2d_1">
      <defs>
       <path d="M 0 0 
L 0 4 
" id="me7c706d5fa" style="stroke:#262626;stroke-width:1.25;"/>
      </defs>
      <g>
       <use style="fill:#262626;stroke:#262626;stroke-width:1.25;" x="169.148936" xlink:href="#me7c706d5fa" y="315"/>
      </g>
     </g>
     <g id="line2d_2">
      <defs>
       <path d="M 0 0 
L 0 -4 
" id="mb43b767a64" style="stroke:#262626;stroke-width:1.25;"/>
      </defs>
      <g>
       <use style="fill:#262626;stroke:#262626;stroke-width:1.25;" x="169.148936" xlink:href="#mb43b767a64" y="43.2"/>
      </g>
     </g>
     <g id="text_1">
      <!-- 2020 -->
      <g style="fill:#262626;" transform="translate(155.151436 330.858281)scale(0.11 -0.11)">
       <defs>
        <path d="M 19.1875 8.296875 
L 53.609375 8.296875 
L 53.609375 0 
L 7.328125 0 
L 7.328125 8.296875 
Q 12.9375 14.109375 22.625 23.890625 
Q 32.328125 33.6875 34.8125 36.53125 
Q 39.546875 41.84375 41.421875 45.53125 
Q 43.3125 49.21875 43.3125 52.78125 
Q 43.3125 58.59375 39.234375 62.25 
Q 35.15625 65.921875 28.609375 65.921875 
Q 23.96875 65.921875 18.8125 64.3125 
Q 13.671875 62.703125 7.8125 59.421875 
L 7.8125 69.390625 
Q 13.765625 71.78125 18.9375 73 
Q 24.125 74.21875 28.421875 74.21875 
Q 39.75 74.21875 46.484375 68.546875 
Q 53.21875 62.890625 53.21875 53.421875 
Q 53.21875 48.921875 51.53125 44.890625 
Q 49.859375 40.875 45.40625 35.40625 
Q 44.1875 33.984375 37.640625 27.21875 
Q 31.109375 20.453125 19.1875 8.296875 
z
" id="DejaVuSans-50"/>
        <path d="M 31.78125 66.40625 
Q 24.171875 66.40625 20.328125 58.90625 
Q 16.5 51.421875 16.5 36.375 
Q 16.5 21.390625 20.328125 13.890625 
Q 24.171875 6.390625 31.78125 6.390625 
Q 39.453125 6.390625 43.28125 13.890625 
Q 47.125 21.390625 47.125 36.375 
Q 47.125 51.421875 43.28125 58.90625 
Q 39.453125 66.40625 31.78125 66.40625 
z
M 31.78125 74.21875 
Q 44.046875 74.21875 50.515625 64.515625 
Q 56.984375 54.828125 56.984375 36.375 
Q 56.984375 17.96875 50.515625 8.265625 
Q 44.046875 -1.421875 31.78125 -1.421875 
Q 19.53125 -1.421875 13.0625 8.265625 
Q 6.59375 17.96875 6.59375 36.375 
Q 6.59375 54.828125 13.0625 64.515625 
Q 19.53125 74.21875 31.78125 74.21875 
z
" id="DejaVuSans-48"/>
       </defs>
       <use xlink:href="#DejaVuSans-50"/>
       <use x="63.623047" xlink:href="#DejaVuSans-48"/>
       <use x="127.246094" xlink:href="#DejaVuSans-50"/>
       <use x="190.869141" xlink:href="#DejaVuSans-48"/>
      </g>
     </g>
    </g>
    <g id="xtick_2">
     <g id="line2d_3">
      <g>
       <use style="fill:#262626;stroke:#262626;stroke-width:1.25;" x="282.218845" xlink:href="#me7c706d5fa" y="315"/>
      </g>
     </g>
     <g id="line2d_4">
      <g>
       <use style="fill:#262626;stroke:#262626;stroke-width:1.25;" x="282.218845" xlink:href="#mb43b767a64" y="43.2"/>
      </g>
     </g>
     <g id="text_2">
      <!-- 2040 -->
      <g style="fill:#262626;" transform="translate(268.221345 330.858281)scale(0.11 -0.11)">
       <defs>
        <path d="M 37.796875 64.3125 
L 12.890625 25.390625 
L 37.796875 25.390625 
z
M 35.203125 72.90625 
L 47.609375 72.90625 
L 47.609375 25.390625 
L 58.015625 25.390625 
L 58.015625 17.1875 
L 47.609375 17.1875 
L 47.609375 0 
L 37.796875 0 
L 37.796875 17.1875 
L 4.890625 17.1875 
L 4.890625 26.703125 
z
" id="DejaVuSans-52"/>
       </defs>
       <use xlink:href="#DejaVuSans-50"/>
       <use x="63.623047" xlink:href="#DejaVuSans-48"/>
       <use x="127.246094" xlink:href="#DejaVuSans-52"/>
       <use x="190.869141" xlink:href="#DejaVuSans-48"/>
      </g>
     </g>
    </g>
    <g id="xtick_3">
     <g id="line2d_5">
      <g>
       <use style="fill:#262626;stroke:#262626;stroke-width:1.25;" x="395.288754" xlink:href="#me7c706d5fa" y="315"/>
      </g>
     </g>
     <g id="line2d_6">
      <g>
       <use style="fill:#262626;stroke:#262626;stroke-width:1.25;" x="395.288754" xlink:href="#mb43b767a64" y="43.2"/>
      </g>
     </g>
     <g id="text_3">
      <!-- 2060 -->
      <g style="fill:#262626;" transform="translate(381.291254 330.858281)scale(0.11 -0.11)">
       <defs>
        <path d="M 33.015625 40.375 
Q 26.375 40.375 22.484375 35.828125 
Q 18.609375 31.296875 18.609375 23.390625 
Q 18.609375 15.53125 22.484375 10.953125 
Q 26.375 6.390625 33.015625 6.390625 
Q 39.65625 6.390625 43.53125 10.953125 
Q 47.40625 15.53125 47.40625 23.390625 
Q 47.40625 31.296875 43.53125 35.828125 
Q 39.65625 40.375 33.015625 40.375 
z
M 52.59375 71.296875 
L 52.59375 62.3125 
Q 48.875 64.0625 45.09375 64.984375 
Q 41.3125 65.921875 37.59375 65.921875 
Q 27.828125 65.921875 22.671875 59.328125 
Q 17.53125 52.734375 16.796875 39.40625 
Q 19.671875 43.65625 24.015625 45.921875 
Q 28.375 48.1875 33.59375 48.1875 
Q 44.578125 48.1875 50.953125 41.515625 
Q 57.328125 34.859375 57.328125 23.390625 
Q 57.328125 12.15625 50.6875 5.359375 
Q 44.046875 -1.421875 33.015625 -1.421875 
Q 20.359375 -1.421875 13.671875 8.265625 
Q 6.984375 17.96875 6.984375 36.375 
Q 6.984375 53.65625 15.1875 63.9375 
Q 23.390625 74.21875 37.203125 74.21875 
Q 40.921875 74.21875 44.703125 73.484375 
Q 48.484375 72.75 52.59375 71.296875 
z
" id="DejaVuSans-54"/>
       </defs>
       <use xlink:href="#DejaVuSans-50"/>
       <use x="63.623047" xlink:href="#DejaVuSans-48"/>
       <use x="127.246094" xlink:href="#DejaVuSans-54"/>
       <use x="190.869141" xlink:href="#DejaVuSans-48"/>
      </g>
     </g>
    </g>
    <g id="xtick_4">
     <g id="line2d_7">
      <g>
       <use style="fill:#262626;stroke:#262626;stroke-width:1.25;" x="508.358663" xlink:href="#me7c706d5fa" y="315"/>
      </g>
     </g>
     <g id="line2d_8">
      <g>
       <use style="fill:#262626;stroke:#262626;stroke-width:1.25;" x="508.358663" xlink:href="#mb43b767a64" y="43.2"/>
      </g>
     </g>
     <g id="text_4">
      <!-- 2080 -->
      <g style="fill:#262626;" transform="translate(494.361163 330.858281)scale(0.11 -0.11)">
       <defs>
        <path d="M 31.78125 34.625 
Q 24.75 34.625 20.71875 30.859375 
Q 16.703125 27.09375 16.703125 20.515625 
Q 16.703125 13.921875 20.71875 10.15625 
Q 24.75 6.390625 31.78125 6.390625 
Q 38.8125 6.390625 42.859375 10.171875 
Q 46.921875 13.96875 46.921875 20.515625 
Q 46.921875 27.09375 42.890625 30.859375 
Q 38.875 34.625 31.78125 34.625 
z
M 21.921875 38.8125 
Q 15.578125 40.375 12.03125 44.71875 
Q 8.5 49.078125 8.5 55.328125 
Q 8.5 64.0625 14.71875 69.140625 
Q 20.953125 74.21875 31.78125 74.21875 
Q 42.671875 74.21875 48.875 69.140625 
Q 55.078125 64.0625 55.078125 55.328125 
Q 55.078125 49.078125 51.53125 44.71875 
Q 48 40.375 41.703125 38.8125 
Q 48.828125 37.15625 52.796875 32.3125 
Q 56.78125 27.484375 56.78125 20.515625 
Q 56.78125 9.90625 50.3125 4.234375 
Q 43.84375 -1.421875 31.78125 -1.421875 
Q 19.734375 -1.421875 13.25 4.234375 
Q 6.78125 9.90625 6.78125 20.515625 
Q 6.78125 27.484375 10.78125 32.3125 
Q 14.796875 37.15625 21.921875 38.8125 
z
M 18.3125 54.390625 
Q 18.3125 48.734375 21.84375 45.5625 
Q 25.390625 42.390625 31.78125 42.390625 
Q 38.140625 42.390625 41.71875 45.5625 
Q 45.3125 48.734375 45.3125 54.390625 
Q 45.3125 60.0625 41.71875 63.234375 
Q 38.140625 66.40625 31.78125 66.40625 
Q 25.390625 66.40625 21.84375 63.234375 
Q 18.3125 60.0625 18.3125 54.390625 
z
" id="DejaVuSans-56"/>
       </defs>
       <use xlink:href="#DejaVuSans-50"/>
       <use x="63.623047" xlink:href="#DejaVuSans-48"/>
       <use x="127.246094" xlink:href="#DejaVuSans-56"/>
       <use x="190.869141" xlink:href="#DejaVuSans-48"/>
      </g>
     </g>
    </g>
    <g id="xtick_5">
     <g id="line2d_9">
      <g>
       <use style="fill:#262626;stroke:#262626;stroke-width:1.25;" x="621.428571" xlink:href="#me7c706d5fa" y="315"/>
      </g>
     </g>
     <g id="line2d_10">
      <g>
       <use style="fill:#262626;stroke:#262626;stroke-width:1.25;" x="621.428571" xlink:href="#mb43b767a64" y="43.2"/>
      </g>
     </g>
     <g id="text_5">
      <!-- 2100 -->
      <g style="fill:#262626;" transform="translate(607.431071 330.858281)scale(0.11 -0.11)">
       <defs>
        <path d="M 12.40625 8.296875 
L 28.515625 8.296875 
L 28.515625 63.921875 
L 10.984375 60.40625 
L 10.984375 69.390625 
L 28.421875 72.90625 
L 38.28125 72.90625 
L 38.28125 8.296875 
L 54.390625 8.296875 
L 54.390625 0 
L 12.40625 0 
z
" id="DejaVuSans-49"/>
       </defs>
       <use xlink:href="#DejaVuSans-50"/>
       <use x="63.623047" xlink:href="#DejaVuSans-49"/>
       <use x="127.246094" xlink:href="#DejaVuSans-48"/>
       <use x="190.869141" xlink:href="#DejaVuSans-48"/>
      </g>
     </g>
    </g>
    <g id="text_6">
     <!-- Years -->
     <g style="fill:#262626;" transform="translate(353.169375 346.264063)scale(0.12 -0.12)">
      <defs>
       <path d="M -0.203125 72.90625 
L 10.40625 72.90625 
L 30.609375 42.921875 
L 50.6875 72.90625 
L 61.28125 72.90625 
L 35.5 34.71875 
L 35.5 0 
L 25.59375 0 
L 25.59375 34.71875 
z
" id="DejaVuSans-89"/>
       <path d="M 56.203125 29.59375 
L 56.203125 25.203125 
L 14.890625 25.203125 
Q 15.484375 15.921875 20.484375 11.0625 
Q 25.484375 6.203125 34.421875 6.203125 
Q 39.59375 6.203125 44.453125 7.46875 
Q 49.3125 8.734375 54.109375 11.28125 
L 54.109375 2.78125 
Q 49.265625 0.734375 44.1875 -0.34375 
Q 39.109375 -1.421875 33.890625 -1.421875 
Q 20.796875 -1.421875 13.15625 6.1875 
Q 5.515625 13.8125 5.515625 26.8125 
Q 5.515625 40.234375 12.765625 48.109375 
Q 20.015625 56 32.328125 56 
Q 43.359375 56 49.78125 48.890625 
Q 56.203125 41.796875 56.203125 29.59375 
z
M 47.21875 32.234375 
Q 47.125 39.59375 43.09375 43.984375 
Q 39.0625 48.390625 32.421875 48.390625 
Q 24.90625 48.390625 20.390625 44.140625 
Q 15.875 39.890625 15.1875 32.171875 
z
" id="DejaVuSans-101"/>
       <path d="M 34.28125 27.484375 
Q 23.390625 27.484375 19.1875 25 
Q 14.984375 22.515625 14.984375 16.5 
Q 14.984375 11.71875 18.140625 8.90625 
Q 21.296875 6.109375 26.703125 6.109375 
Q 34.1875 6.109375 38.703125 11.40625 
Q 43.21875 16.703125 43.21875 25.484375 
L 43.21875 27.484375 
z
M 52.203125 31.203125 
L 52.203125 0 
L 43.21875 0 
L 43.21875 8.296875 
Q 40.140625 3.328125 35.546875 0.953125 
Q 30.953125 -1.421875 24.3125 -1.421875 
Q 15.921875 -1.421875 10.953125 3.296875 
Q 6 8.015625 6 15.921875 
Q 6 25.140625 12.171875 29.828125 
Q 18.359375 34.515625 30.609375 34.515625 
L 43.21875 34.515625 
L 43.21875 35.40625 
Q 43.21875 41.609375 39.140625 45 
Q 35.0625 48.390625 27.6875 48.390625 
Q 23 48.390625 18.546875 47.265625 
Q 14.109375 46.140625 10.015625 43.890625 
L 10.015625 52.203125 
Q 14.9375 54.109375 19.578125 55.046875 
Q 24.21875 56 28.609375 56 
Q 40.484375 56 46.34375 49.84375 
Q 52.203125 43.703125 52.203125 31.203125 
z
" id="DejaVuSans-97"/>
       <path d="M 41.109375 46.296875 
Q 39.59375 47.171875 37.8125 47.578125 
Q 36.03125 48 33.890625 48 
Q 26.265625 48 22.1875 43.046875 
Q 18.109375 38.09375 18.109375 28.8125 
L 18.109375 0 
L 9.078125 0 
L 9.078125 54.6875 
L 18.109375 54.6875 
L 18.109375 46.1875 
Q 20.953125 51.171875 25.484375 53.578125 
Q 30.03125 56 36.53125 56 
Q 37.453125 56 38.578125 55.875 
Q 39.703125 55.765625 41.0625 55.515625 
z
" id="DejaVuSans-114"/>
       <path d="M 44.28125 53.078125 
L 44.28125 44.578125 
Q 40.484375 46.53125 36.375 47.5 
Q 32.28125 48.484375 27.875 48.484375 
Q 21.1875 48.484375 17.84375 46.4375 
Q 14.5 44.390625 14.5 40.28125 
Q 14.5 37.15625 16.890625 35.375 
Q 19.28125 33.59375 26.515625 31.984375 
L 29.59375 31.296875 
Q 39.15625 29.25 43.1875 25.515625 
Q 47.21875 21.78125 47.21875 15.09375 
Q 47.21875 7.46875 41.1875 3.015625 
Q 35.15625 -1.421875 24.609375 -1.421875 
Q 20.21875 -1.421875 15.453125 -0.5625 
Q 10.6875 0.296875 5.421875 2 
L 5.421875 11.28125 
Q 10.40625 8.6875 15.234375 7.390625 
Q 20.0625 6.109375 24.8125 6.109375 
Q 31.15625 6.109375 34.5625 8.28125 
Q 37.984375 10.453125 37.984375 14.40625 
Q 37.984375 18.0625 35.515625 20.015625 
Q 33.0625 21.96875 24.703125 23.78125 
L 21.578125 24.515625 
Q 13.234375 26.265625 9.515625 29.90625 
Q 5.8125 33.546875 5.8125 39.890625 
Q 5.8125 47.609375 11.28125 51.796875 
Q 16.75 56 26.8125 56 
Q 31.78125 56 36.171875 55.265625 
Q 40.578125 54.546875 44.28125 53.078125 
z
" id="DejaVuSans-115"/>
      </defs>
      <use xlink:href="#DejaVuSans-89"/>
      <use x="47.833984" xlink:href="#DejaVuSans-101"/>
      <use x="109.357422" xlink:href="#DejaVuSans-97"/>
      <use x="170.636719" xlink:href="#DejaVuSans-114"/>
      <use x="211.75" xlink:href="#DejaVuSans-115"/>
     </g>
    </g>
   </g>
   <g id="matplotlib.axis_2">
    <g id="ytick_1">
     <g id="line2d_11">
      <defs>
       <path d="M 0 0 
L -9 0 
" id="m6670847c7b" style="stroke:#262626;stroke-width:1.25;"/>
      </defs>
      <g>
       <use style="fill:#262626;stroke:#262626;stroke-width:1.25;" x="90" xlink:href="#m6670847c7b" y="302.485471"/>
      </g>
     </g>
     <g id="line2d_12">
      <defs>
       <path d="M 0 0 
L 9 0 
" id="m9f80890861" style="stroke:#262626;stroke-width:1.25;"/>
      </defs>
      <g>
       <use style="fill:#262626;stroke:#262626;stroke-width:1.25;" x="648" xlink:href="#m9f80890861" y="302.485471"/>
      </g>
     </g>
     <g id="text_7">
      <!-- 0 -->
      <g style="fill:#262626;" transform="translate(70.50125 306.664612)scale(0.11 -0.11)">
       <use xlink:href="#DejaVuSans-48"/>
      </g>
     </g>
    </g>
    <g id="ytick_2">
     <g id="line2d_13">
      <g>
       <use style="fill:#262626;stroke:#262626;stroke-width:1.25;" x="90" xlink:href="#m6670847c7b" y="257.418824"/>
      </g>
     </g>
     <g id="line2d_14">
      <g>
       <use style="fill:#262626;stroke:#262626;stroke-width:1.25;" x="648" xlink:href="#m9f80890861" y="257.418824"/>
      </g>
     </g>
     <g id="text_8">
      <!-- 5 -->
      <g style="fill:#262626;" transform="translate(70.50125 261.597965)scale(0.11 -0.11)">
       <defs>
        <path d="M 10.796875 72.90625 
L 49.515625 72.90625 
L 49.515625 64.59375 
L 19.828125 64.59375 
L 19.828125 46.734375 
Q 21.96875 47.46875 24.109375 47.828125 
Q 26.265625 48.1875 28.421875 48.1875 
Q 40.625 48.1875 47.75 41.5 
Q 54.890625 34.8125 54.890625 23.390625 
Q 54.890625 11.625 47.5625 5.09375 
Q 40.234375 -1.421875 26.90625 -1.421875 
Q 22.3125 -1.421875 17.546875 -0.640625 
Q 12.796875 0.140625 7.71875 1.703125 
L 7.71875 11.625 
Q 12.109375 9.234375 16.796875 8.0625 
Q 21.484375 6.890625 26.703125 6.890625 
Q 35.15625 6.890625 40.078125 11.328125 
Q 45.015625 15.765625 45.015625 23.390625 
Q 45.015625 31 40.078125 35.4375 
Q 35.15625 39.890625 26.703125 39.890625 
Q 22.75 39.890625 18.8125 39.015625 
Q 14.890625 38.140625 10.796875 36.28125 
z
" id="DejaVuSans-53"/>
       </defs>
       <use xlink:href="#DejaVuSans-53"/>
      </g>
     </g>
    </g>
    <g id="ytick_3">
     <g id="line2d_15">
      <g>
       <use style="fill:#262626;stroke:#262626;stroke-width:1.25;" x="90" xlink:href="#m6670847c7b" y="212.352178"/>
      </g>
     </g>
     <g id="line2d_16">
      <g>
       <use style="fill:#262626;stroke:#262626;stroke-width:1.25;" x="648" xlink:href="#m9f80890861" y="212.352178"/>
      </g>
     </g>
     <g id="text_9">
      <!-- 10 -->
      <g style="fill:#262626;" transform="translate(63.5025 216.531319)scale(0.11 -0.11)">
       <use xlink:href="#DejaVuSans-49"/>
       <use x="63.623047" xlink:href="#DejaVuSans-48"/>
      </g>
     </g>
    </g>
    <g id="ytick_4">
     <g id="line2d_17">
      <g>
       <use style="fill:#262626;stroke:#262626;stroke-width:1.25;" x="90" xlink:href="#m6670847c7b" y="167.285531"/>
      </g>
     </g>
     <g id="line2d_18">
      <g>
       <use style="fill:#262626;stroke:#262626;stroke-width:1.25;" x="648" xlink:href="#m9f80890861" y="167.285531"/>
      </g>
     </g>
     <g id="text_10">
      <!-- 15 -->
      <g style="fill:#262626;" transform="translate(63.5025 171.464672)scale(0.11 -0.11)">
       <use xlink:href="#DejaVuSans-49"/>
       <use x="63.623047" xlink:href="#DejaVuSans-53"/>
      </g>
     </g>
    </g>
    <g id="ytick_5">
     <g id="line2d_19">
      <g>
       <use style="fill:#262626;stroke:#262626;stroke-width:1.25;" x="90" xlink:href="#m6670847c7b" y="122.218885"/>
      </g>
     </g>
     <g id="line2d_20">
      <g>
       <use style="fill:#262626;stroke:#262626;stroke-width:1.25;" x="648" xlink:href="#m9f80890861" y="122.218885"/>
      </g>
     </g>
     <g id="text_11">
      <!-- 20 -->
      <g style="fill:#262626;" transform="translate(63.5025 126.398026)scale(0.11 -0.11)">
       <use xlink:href="#DejaVuSans-50"/>
       <use x="63.623047" xlink:href="#DejaVuSans-48"/>
      </g>
     </g>
    </g>
    <g id="ytick_6">
     <g id="line2d_21">
      <g>
       <use style="fill:#262626;stroke:#262626;stroke-width:1.25;" x="90" xlink:href="#m6670847c7b" y="77.152238"/>
      </g>
     </g>
     <g id="line2d_22">
      <g>
       <use style="fill:#262626;stroke:#262626;stroke-width:1.25;" x="648" xlink:href="#m9f80890861" y="77.152238"/>
      </g>
     </g>
     <g id="text_12">
      <!-- 25 -->
      <g style="fill:#262626;" transform="translate(63.5025 81.331379)scale(0.11 -0.11)">
       <use xlink:href="#DejaVuSans-50"/>
       <use x="63.623047" xlink:href="#DejaVuSans-53"/>
      </g>
     </g>
    </g>
    <g id="text_13">
     <!-- Anomaly (%) -->
     <g style="fill:#262626;" transform="translate(57.006875 217.707188)rotate(-90)scale(0.12 -0.12)">
      <defs>
       <path d="M 34.1875 63.1875 
L 20.796875 26.90625 
L 47.609375 26.90625 
z
M 28.609375 72.90625 
L 39.796875 72.90625 
L 67.578125 0 
L 57.328125 0 
L 50.6875 18.703125 
L 17.828125 18.703125 
L 11.1875 0 
L 0.78125 0 
z
" id="DejaVuSans-65"/>
       <path d="M 54.890625 33.015625 
L 54.890625 0 
L 45.90625 0 
L 45.90625 32.71875 
Q 45.90625 40.484375 42.875 44.328125 
Q 39.84375 48.1875 33.796875 48.1875 
Q 26.515625 48.1875 22.3125 43.546875 
Q 18.109375 38.921875 18.109375 30.90625 
L 18.109375 0 
L 9.078125 0 
L 9.078125 54.6875 
L 18.109375 54.6875 
L 18.109375 46.1875 
Q 21.34375 51.125 25.703125 53.5625 
Q 30.078125 56 35.796875 56 
Q 45.21875 56 50.046875 50.171875 
Q 54.890625 44.34375 54.890625 33.015625 
z
" id="DejaVuSans-110"/>
       <path d="M 30.609375 48.390625 
Q 23.390625 48.390625 19.1875 42.75 
Q 14.984375 37.109375 14.984375 27.296875 
Q 14.984375 17.484375 19.15625 11.84375 
Q 23.34375 6.203125 30.609375 6.203125 
Q 37.796875 6.203125 41.984375 11.859375 
Q 46.1875 17.53125 46.1875 27.296875 
Q 46.1875 37.015625 41.984375 42.703125 
Q 37.796875 48.390625 30.609375 48.390625 
z
M 30.609375 56 
Q 42.328125 56 49.015625 48.375 
Q 55.71875 40.765625 55.71875 27.296875 
Q 55.71875 13.875 49.015625 6.21875 
Q 42.328125 -1.421875 30.609375 -1.421875 
Q 18.84375 -1.421875 12.171875 6.21875 
Q 5.515625 13.875 5.515625 27.296875 
Q 5.515625 40.765625 12.171875 48.375 
Q 18.84375 56 30.609375 56 
z
" id="DejaVuSans-111"/>
       <path d="M 52 44.1875 
Q 55.375 50.25 60.0625 53.125 
Q 64.75 56 71.09375 56 
Q 79.640625 56 84.28125 50.015625 
Q 88.921875 44.046875 88.921875 33.015625 
L 88.921875 0 
L 79.890625 0 
L 79.890625 32.71875 
Q 79.890625 40.578125 77.09375 44.375 
Q 74.3125 48.1875 68.609375 48.1875 
Q 61.625 48.1875 57.5625 43.546875 
Q 53.515625 38.921875 53.515625 30.90625 
L 53.515625 0 
L 44.484375 0 
L 44.484375 32.71875 
Q 44.484375 40.625 41.703125 44.40625 
Q 38.921875 48.1875 33.109375 48.1875 
Q 26.21875 48.1875 22.15625 43.53125 
Q 18.109375 38.875 18.109375 30.90625 
L 18.109375 0 
L 9.078125 0 
L 9.078125 54.6875 
L 18.109375 54.6875 
L 18.109375 46.1875 
Q 21.1875 51.21875 25.484375 53.609375 
Q 29.78125 56 35.6875 56 
Q 41.65625 56 45.828125 52.96875 
Q 50 49.953125 52 44.1875 
z
" id="DejaVuSans-109"/>
       <path d="M 9.421875 75.984375 
L 18.40625 75.984375 
L 18.40625 0 
L 9.421875 0 
z
" id="DejaVuSans-108"/>
       <path d="M 32.171875 -5.078125 
Q 28.375 -14.84375 24.75 -17.8125 
Q 21.140625 -20.796875 15.09375 -20.796875 
L 7.90625 -20.796875 
L 7.90625 -13.28125 
L 13.1875 -13.28125 
Q 16.890625 -13.28125 18.9375 -11.515625 
Q 21 -9.765625 23.484375 -3.21875 
L 25.09375 0.875 
L 2.984375 54.6875 
L 12.5 54.6875 
L 29.59375 11.921875 
L 46.6875 54.6875 
L 56.203125 54.6875 
z
" id="DejaVuSans-121"/>
       <path id="DejaVuSans-32"/>
       <path d="M 31 75.875 
Q 24.46875 64.65625 21.28125 53.65625 
Q 18.109375 42.671875 18.109375 31.390625 
Q 18.109375 20.125 21.3125 9.0625 
Q 24.515625 -2 31 -13.1875 
L 23.1875 -13.1875 
Q 15.875 -1.703125 12.234375 9.375 
Q 8.59375 20.453125 8.59375 31.390625 
Q 8.59375 42.28125 12.203125 53.3125 
Q 15.828125 64.359375 23.1875 75.875 
z
" id="DejaVuSans-40"/>
       <path d="M 72.703125 32.078125 
Q 68.453125 32.078125 66.03125 28.46875 
Q 63.625 24.859375 63.625 18.40625 
Q 63.625 12.0625 66.03125 8.421875 
Q 68.453125 4.78125 72.703125 4.78125 
Q 76.859375 4.78125 79.265625 8.421875 
Q 81.6875 12.0625 81.6875 18.40625 
Q 81.6875 24.8125 79.265625 28.4375 
Q 76.859375 32.078125 72.703125 32.078125 
z
M 72.703125 38.28125 
Q 80.421875 38.28125 84.953125 32.90625 
Q 89.5 27.546875 89.5 18.40625 
Q 89.5 9.28125 84.9375 3.921875 
Q 80.375 -1.421875 72.703125 -1.421875 
Q 64.890625 -1.421875 60.34375 3.921875 
Q 55.8125 9.28125 55.8125 18.40625 
Q 55.8125 27.59375 60.375 32.9375 
Q 64.9375 38.28125 72.703125 38.28125 
z
M 22.3125 68.015625 
Q 18.109375 68.015625 15.6875 64.375 
Q 13.28125 60.75 13.28125 54.390625 
Q 13.28125 47.953125 15.671875 44.328125 
Q 18.0625 40.71875 22.3125 40.71875 
Q 26.5625 40.71875 28.96875 44.328125 
Q 31.390625 47.953125 31.390625 54.390625 
Q 31.390625 60.6875 28.953125 64.34375 
Q 26.515625 68.015625 22.3125 68.015625 
z
M 66.40625 74.21875 
L 74.21875 74.21875 
L 28.609375 -1.421875 
L 20.796875 -1.421875 
z
M 22.3125 74.21875 
Q 30.03125 74.21875 34.609375 68.875 
Q 39.203125 63.53125 39.203125 54.390625 
Q 39.203125 45.171875 34.640625 39.84375 
Q 30.078125 34.515625 22.3125 34.515625 
Q 14.546875 34.515625 10.03125 39.859375 
Q 5.515625 45.21875 5.515625 54.390625 
Q 5.515625 63.484375 10.046875 68.84375 
Q 14.59375 74.21875 22.3125 74.21875 
z
" id="DejaVuSans-37"/>
       <path d="M 8.015625 75.875 
L 15.828125 75.875 
Q 23.140625 64.359375 26.78125 53.3125 
Q 30.421875 42.28125 30.421875 31.390625 
Q 30.421875 20.453125 26.78125 9.375 
Q 23.140625 -1.703125 15.828125 -13.1875 
L 8.015625 -13.1875 
Q 14.5 -2 17.703125 9.0625 
Q 20.90625 20.125 20.90625 31.390625 
Q 20.90625 42.671875 17.703125 53.65625 
Q 14.5 64.65625 8.015625 75.875 
z
" id="DejaVuSans-41"/>
      </defs>
      <use xlink:href="#DejaVuSans-65"/>
      <use x="68.408203" xlink:href="#DejaVuSans-110"/>
      <use x="131.787109" xlink:href="#DejaVuSans-111"/>
      <use x="192.96875" xlink:href="#DejaVuSans-109"/>
      <use x="290.380859" xlink:href="#DejaVuSans-97"/>
      <use x="351.660156" xlink:href="#DejaVuSans-108"/>
      <use x="379.443359" xlink:href="#DejaVuSans-121"/>
      <use x="438.623047" xlink:href="#DejaVuSans-32"/>
      <use x="470.410156" xlink:href="#DejaVuSans-40"/>
      <use x="509.423828" xlink:href="#DejaVuSans-37"/>
      <use x="604.443359" xlink:href="#DejaVuSans-41"/>
     </g>
    </g>
   </g>
   <g id="PolyCollection_1">
    <defs>
     <path d="M 90 -67.877003 
L 90 -75.553576 
L 95.653495 -107.006901 
L 101.306991 -91.539546 
L 106.960486 -96.531642 
L 112.613982 -97.094386 
L 118.267477 -90.560965 
L 123.920973 -87.734352 
L 129.574468 -100.647256 
L 135.227964 -112.663048 
L 140.881459 -105.730313 
L 146.534954 -107.724897 
L 152.18845 -105.676052 
L 157.841945 -106.435707 
L 163.495441 -108.668384 
L 169.148936 -97.832818 
L 174.802432 -109.852688 
L 180.455927 -117.415584 
L 186.109422 -96.313159 
L 191.762918 -106.815631 
L 197.416413 -116.506594 
L 203.069909 -114.829904 
L 208.723404 -110.362147 
L 214.3769 -112.266653 
L 220.030395 -130.529383 
L 225.683891 -115.624291 
L 231.337386 -117.64429 
L 236.990881 -113.041892 
L 242.644377 -122.984816 
L 248.297872 -131.68978 
L 253.951368 -115.016247 
L 259.604863 -125.437612 
L 265.258359 -129.339381 
L 270.911854 -120.21288 
L 276.56535 -136.00056 
L 282.218845 -131.284875 
L 287.87234 -136.477857 
L 293.525836 -141.015986 
L 299.179331 -158.207661 
L 304.832827 -137.452254 
L 310.486322 -148.920624 
L 316.139818 -146.995051 
L 321.793313 -166.714383 
L 327.446809 -148.06801 
L 333.100304 -140.165897 
L 338.753799 -148.520277 
L 344.407295 -164.812008 
L 350.06079 -164.755333 
L 355.714286 -161.774334 
L 361.367781 -171.222714 
L 367.021277 -177.826978 
L 372.674772 -189.505188 
L 378.328267 -176.167074 
L 383.981763 -172.29985 
L 389.635258 -172.052463 
L 395.288754 -191.567855 
L 400.942249 -181.10316 
L 406.595745 -177.977564 
L 412.24924 -191.490037 
L 417.902736 -186.348335 
L 423.556231 -202.257743 
L 429.209726 -194.790473 
L 434.863222 -208.214303 
L 440.516717 -217.641667 
L 446.170213 -213.314162 
L 451.823708 -216.872746 
L 457.477204 -210.013959 
L 463.130699 -223.092319 
L 468.784195 -222.409614 
L 474.43769 -214.194503 
L 480.091185 -231.410148 
L 485.744681 -235.8198 
L 491.398176 -219.453597 
L 497.051672 -235.029944 
L 502.705167 -258.711501 
L 508.358663 -251.884815 
L 514.012158 -241.254662 
L 519.665653 -227.737385 
L 525.319149 -231.712761 
L 530.972644 -241.094923 
L 536.62614 -240.494269 
L 542.279635 -251.903129 
L 547.933131 -260.447449 
L 553.586626 -252.937108 
L 559.240122 -260.389894 
L 564.893617 -262.926226 
L 570.547112 -280.040707 
L 576.200608 -272.693842 
L 581.854103 -272.442853 
L 587.507599 -273.78933 
L 593.161094 -283.034032 
L 598.81459 -297.185784 
L 604.468085 -282.662442 
L 610.121581 -282.241695 
L 615.775076 -285.770666 
L 621.428571 -304.445455 
L 621.428571 -198.840692 
L 621.428571 -198.840692 
L 615.775076 -197.020449 
L 610.121581 -196.897638 
L 604.468085 -193.952321 
L 598.81459 -192.113091 
L 593.161094 -193.429217 
L 587.507599 -188.835878 
L 581.854103 -194.478769 
L 576.200608 -193.915691 
L 570.547112 -191.172812 
L 564.893617 -187.136812 
L 559.240122 -178.948663 
L 553.586626 -179.999264 
L 547.933131 -184.868933 
L 542.279635 -174.685836 
L 536.62614 -168.330772 
L 530.972644 -166.171745 
L 525.319149 -158.847643 
L 519.665653 -185.841196 
L 514.012158 -182.99532 
L 508.358663 -169.09179 
L 502.705167 -165.846803 
L 497.051672 -168.169456 
L 491.398176 -171.298735 
L 485.744681 -158.591975 
L 480.091185 -158.666311 
L 474.43769 -158.590186 
L 468.784195 -154.223973 
L 463.130699 -156.60049 
L 457.477204 -153.422629 
L 451.823708 -151.774454 
L 446.170213 -152.161593 
L 440.516717 -147.692567 
L 434.863222 -157.03586 
L 429.209726 -150.608273 
L 423.556231 -146.069459 
L 417.902736 -146.458312 
L 412.24924 -139.407224 
L 406.595745 -135.780969 
L 400.942249 -138.577579 
L 395.288754 -124.357882 
L 389.635258 -134.835514 
L 383.981763 -131.881887 
L 378.328267 -131.328198 
L 372.674772 -125.739426 
L 367.021277 -124.469558 
L 361.367781 -128.844606 
L 355.714286 -123.642624 
L 350.06079 -123.826736 
L 344.407295 -116.249241 
L 338.753799 -118.868878 
L 333.100304 -117.689223 
L 327.446809 -119.725455 
L 321.793313 -121.618266 
L 316.139818 -109.702779 
L 310.486322 -113.106351 
L 304.832827 -109.39434 
L 299.179331 -116.360888 
L 293.525836 -112.122177 
L 287.87234 -106.642299 
L 282.218845 -98.16367 
L 276.56535 -104.242496 
L 270.911854 -96.024205 
L 265.258359 -96.792644 
L 259.604863 -96.044877 
L 253.951368 -94.270488 
L 248.297872 -93.262957 
L 242.644377 -87.040021 
L 236.990881 -93.977184 
L 231.337386 -89.57729 
L 225.683891 -92.910211 
L 220.030395 -89.245328 
L 214.3769 -87.333887 
L 208.723404 -84.772416 
L 203.069909 -92.385392 
L 197.416413 -84.588781 
L 191.762918 -73.970327 
L 186.109422 -75.391852 
L 180.455927 -87.144674 
L 174.802432 -84.87145 
L 169.148936 -74.405162 
L 163.495441 -81.883388 
L 157.841945 -80.329597 
L 152.18845 -71.617315 
L 146.534954 -64.533714 
L 140.881459 -72.693393 
L 135.227964 -74.414659 
L 129.574468 -74.306026 
L 123.920973 -57.354545 
L 118.267477 -67.315108 
L 112.613982 -70.421741 
L 106.960486 -65.888663 
L 101.306991 -64.181657 
L 95.653495 -66.738511 
L 90 -67.877003 
z
" id="m50e286fecf" style="stroke:#ff0000;stroke-opacity:0.2;"/>
    </defs>
    <g clip-path="url(#p1e018b7cda)">
     <use style="fill:#ff0000;fill-opacity:0.2;stroke:#ff0000;stroke-opacity:0.2;" x="0" xlink:href="#m50e286fecf" y="360"/>
    </g>
   </g>
   <g id="PolyCollection_2">
    <defs>
     <path d="M 90 -67.973859 
L 90 -77.735479 
L 95.653495 -86.610176 
L 101.306991 -86.355864 
L 106.960486 -87.952259 
L 112.613982 -95.567882 
L 118.267477 -93.450829 
L 123.920973 -92.666945 
L 129.574468 -92.031013 
L 135.227964 -92.743262 
L 140.881459 -111.158245 
L 146.534954 -101.2155 
L 152.18845 -103.871799 
L 157.841945 -92.881654 
L 163.495441 -93.714727 
L 169.148936 -104.736446 
L 174.802432 -123.035239 
L 180.455927 -100.571567 
L 186.109422 -108.192284 
L 191.762918 -102.295525 
L 197.416413 -114.838873 
L 203.069909 -106.278922 
L 208.723404 -123.092051 
L 214.3769 -101.435222 
L 220.030395 -106.706065 
L 225.683891 -127.138026 
L 231.337386 -105.910226 
L 236.990881 -114.012267 
L 242.644377 -133.447228 
L 248.297872 -132.888946 
L 253.951368 -107.572056 
L 259.604863 -126.277599 
L 265.258359 -119.926187 
L 270.911854 -139.089403 
L 276.56535 -118.857151 
L 282.218845 -121.417863 
L 287.87234 -119.688707 
L 293.525836 -127.043568 
L 299.179331 -139.509095 
L 304.832827 -126.202776 
L 310.486322 -138.228348 
L 316.139818 -126.197821 
L 321.793313 -130.841755 
L 327.446809 -136.728925 
L 333.100304 -142.782608 
L 338.753799 -136.265676 
L 344.407295 -132.008319 
L 350.06079 -146.791767 
L 355.714286 -142.080734 
L 361.367781 -152.954142 
L 367.021277 -154.54306 
L 372.674772 -143.155055 
L 378.328267 -142.971435 
L 383.981763 -147.703397 
L 389.635258 -147.821149 
L 395.288754 -162.825783 
L 400.942249 -155.243174 
L 406.595745 -156.275045 
L 412.24924 -159.033829 
L 417.902736 -148.579582 
L 423.556231 -151.892187 
L 429.209726 -157.852951 
L 434.863222 -154.863592 
L 440.516717 -160.44967 
L 446.170213 -168.561683 
L 451.823708 -170.909869 
L 457.477204 -166.384775 
L 463.130699 -167.42541 
L 468.784195 -163.533336 
L 474.43769 -159.477327 
L 480.091185 -164.461855 
L 485.744681 -175.191665 
L 491.398176 -169.649097 
L 497.051672 -168.109643 
L 502.705167 -177.059925 
L 508.358663 -191.232448 
L 514.012158 -177.339103 
L 519.665653 -163.762143 
L 525.319149 -169.581722 
L 530.972644 -166.923022 
L 536.62614 -164.738212 
L 542.279635 -172.535752 
L 547.933131 -171.055183 
L 553.586626 -171.169974 
L 559.240122 -178.614015 
L 564.893617 -178.599229 
L 570.547112 -173.63725 
L 576.200608 -167.579747 
L 581.854103 -170.343446 
L 587.507599 -167.881742 
L 593.161094 -168.239088 
L 598.81459 -172.265205 
L 604.468085 -174.220171 
L 610.121581 -174.306985 
L 615.775076 -166.595765 
L 621.428571 -170.487987 
L 621.428571 -109.552924 
L 621.428571 -109.552924 
L 615.775076 -125.941902 
L 610.121581 -120.914297 
L 604.468085 -116.33727 
L 598.81459 -134.690478 
L 593.161094 -113.220686 
L 587.507599 -123.929924 
L 581.854103 -118.343336 
L 576.200608 -116.358595 
L 570.547112 -120.601964 
L 564.893617 -127.768571 
L 559.240122 -122.889712 
L 553.586626 -113.625459 
L 547.933131 -112.346518 
L 542.279635 -107.711648 
L 536.62614 -122.738061 
L 530.972644 -115.514531 
L 525.319149 -125.257389 
L 519.665653 -119.451921 
L 514.012158 -120.095694 
L 508.358663 -119.117117 
L 502.705167 -125.282897 
L 497.051672 -122.099794 
L 491.398176 -115.13956 
L 485.744681 -113.569891 
L 480.091185 -118.033199 
L 474.43769 -120.503985 
L 468.784195 -125.07651 
L 463.130699 -121.071491 
L 457.477204 -108.684225 
L 451.823708 -115.130879 
L 446.170213 -113.197465 
L 440.516717 -108.400472 
L 434.863222 -115.922006 
L 429.209726 -108.274908 
L 423.556231 -116.66312 
L 417.902736 -114.798106 
L 412.24924 -108.968307 
L 406.595745 -105.687946 
L 400.942249 -108.233271 
L 395.288754 -113.115328 
L 389.635258 -107.550459 
L 383.981763 -110.488999 
L 378.328267 -99.747479 
L 372.674772 -98.634069 
L 367.021277 -109.503617 
L 361.367781 -105.053202 
L 355.714286 -107.165282 
L 350.06079 -103.980207 
L 344.407295 -102.87962 
L 338.753799 -99.324517 
L 333.100304 -102.276586 
L 327.446809 -95.017554 
L 321.793313 -102.097401 
L 316.139818 -89.017045 
L 310.486322 -95.982702 
L 304.832827 -92.452335 
L 299.179331 -91.319319 
L 293.525836 -91.691537 
L 287.87234 -94.95914 
L 282.218845 -93.897187 
L 276.56535 -93.729577 
L 270.911854 -91.123915 
L 265.258359 -85.366604 
L 259.604863 -82.098213 
L 253.951368 -89.318508 
L 248.297872 -87.971032 
L 242.644377 -90.278718 
L 236.990881 -92.895311 
L 231.337386 -85.323228 
L 225.683891 -83.220467 
L 220.030395 -86.499232 
L 214.3769 -76.736601 
L 208.723404 -80.505728 
L 203.069909 -85.382986 
L 197.416413 -80.237081 
L 191.762918 -79.77011 
L 186.109422 -72.362449 
L 180.455927 -78.973485 
L 174.802432 -79.233094 
L 169.148936 -81.292785 
L 163.495441 -79.63685 
L 157.841945 -76.150394 
L 152.18845 -80.08045 
L 146.534954 -71.658322 
L 140.881459 -70.870805 
L 135.227964 -76.115903 
L 129.574468 -72.254427 
L 123.920973 -70.849641 
L 118.267477 -70.763019 
L 112.613982 -68.639771 
L 106.960486 -67.683207 
L 101.306991 -66.781235 
L 95.653495 -61.587651 
L 90 -67.973859 
z
" id="m326d54f175" style="stroke:#0000ff;stroke-opacity:0.2;"/>
    </defs>
    <g clip-path="url(#p1e018b7cda)">
     <use style="fill:#0000ff;fill-opacity:0.2;stroke:#0000ff;stroke-opacity:0.2;" x="0" xlink:href="#m326d54f175" y="360"/>
    </g>
   </g>
   <g id="line2d_23">
    <path clip-path="url(#p1e018b7cda)" d="M 90 287.956201 
L 95.653495 282.531604 
L 101.306991 281.203531 
L 106.960486 278.54158 
L 112.613982 279.035105 
L 118.267477 281.435381 
L 123.920973 283.79858 
L 129.574468 274.612165 
L 135.227964 271.168596 
L 140.881459 271.806943 
L 146.534954 276.629777 
L 152.18845 273.470568 
L 157.841945 263.707733 
L 163.495441 269.96701 
L 169.148936 272.707317 
L 174.802432 266.640543 
L 180.455927 260.226763 
L 186.109422 272.133665 
L 191.762918 267.318811 
L 197.416413 265.672429 
L 203.069909 258.89876 
L 208.723404 260.525067 
L 214.3769 259.10281 
L 220.030395 257.584063 
L 225.683891 259.514369 
L 231.337386 261.208161 
L 236.990881 256.136615 
L 242.644377 253.994532 
L 248.297872 249.125513 
L 253.951368 254.87711 
L 259.604863 247.467543 
L 265.258359 245.732531 
L 270.911854 251.396022 
L 276.56535 237.368624 
L 282.218845 244.761959 
L 287.87234 236.074951 
L 293.525836 236.49574 
L 299.179331 227.086523 
L 304.832827 233.977134 
L 310.486322 236.034822 
L 316.139818 231.485905 
L 321.793313 222.41274 
L 327.446809 224.217768 
L 333.100304 230.260862 
L 338.753799 227.010011 
L 344.407295 225.508708 
L 350.06079 216.959745 
L 355.714286 214.579086 
L 361.367781 209.116722 
L 367.021277 211.668401 
L 372.674772 208.983683 
L 378.328267 208.229138 
L 383.981763 209.897602 
L 389.635258 206.234532 
L 395.288754 201.130262 
L 400.942249 201.471489 
L 406.595745 205.323626 
L 412.24924 193.745907 
L 417.902736 194.356207 
L 423.556231 187.226573 
L 429.209726 188.547157 
L 434.863222 185.187385 
L 440.516717 185.655627 
L 446.170213 180.815308 
L 451.823708 179.353095 
L 457.477204 178.401876 
L 463.130699 173.624123 
L 468.784195 172.038193 
L 474.43769 175.582134 
L 480.091185 171.769283 
L 485.744681 167.297173 
L 491.398176 164.548844 
L 497.051672 163.35239 
L 502.705167 165.928233 
L 508.358663 163.260265 
L 514.012158 152.794231 
L 519.665653 152.036305 
L 525.319149 158.758202 
L 530.972644 157.50466 
L 536.62614 163.205371 
L 542.279635 153.83373 
L 547.933131 144.278372 
L 553.586626 146.832416 
L 559.240122 142.870361 
L 564.893617 142.132462 
L 570.547112 129.464321 
L 576.200608 132.924747 
L 581.854103 130.977123 
L 587.507599 133.598593 
L 593.161094 127.734767 
L 598.81459 123.659564 
L 604.468085 122.886975 
L 610.121581 123.929367 
L 615.775076 124.860488 
L 621.428571 122.543934 
" style="fill:none;stroke:#ff0000;stroke-linecap:round;stroke-opacity:0.7;stroke-width:4;"/>
   </g>
   <g id="line2d_24">
    <path clip-path="url(#p1e018b7cda)" d="M 90 287.164758 
L 95.653495 289.743611 
L 101.306991 285.147515 
L 106.960486 281.835315 
L 112.613982 279.849667 
L 118.267477 278.101365 
L 123.920973 278.561989 
L 129.574468 274.955574 
L 135.227964 274.715128 
L 140.881459 274.966135 
L 146.534954 274.984117 
L 152.18845 271.438412 
L 157.841945 276.04976 
L 163.495441 274.115571 
L 169.148936 264.910013 
L 174.802432 268.805969 
L 180.455927 273.365993 
L 186.109422 271.41421 
L 191.762918 271.844115 
L 197.416413 263.651228 
L 203.069909 264.429358 
L 208.723404 265.632271 
L 214.3769 264.136287 
L 220.030395 265.926188 
L 225.683891 262.711658 
L 231.337386 262.875476 
L 236.990881 257.486788 
L 242.644377 251.629089 
L 248.297872 257.412045 
L 253.951368 261.31468 
L 259.604863 255.961224 
L 265.258359 250.616492 
L 270.911854 247.538071 
L 276.56535 251.031818 
L 282.218845 253.46669 
L 287.87234 256.599132 
L 293.525836 247.800083 
L 299.179331 245.122385 
L 304.832827 242.87433 
L 310.486322 243.31933 
L 316.139818 252.349053 
L 321.793313 245.859492 
L 327.446809 246.653982 
L 333.100304 235.983795 
L 338.753799 243.580438 
L 344.407295 245.833834 
L 350.06079 235.386487 
L 355.714286 236.833056 
L 361.367781 235.34451 
L 367.021277 235.860509 
L 372.674772 247.184932 
L 378.328267 238.629463 
L 383.981763 234.247678 
L 389.635258 236.409273 
L 395.288754 225.781708 
L 400.942249 233.65331 
L 406.595745 235.117903 
L 412.24924 232.437838 
L 417.902736 234.707972 
L 423.556231 228.948141 
L 429.209726 227.409441 
L 434.863222 232.636436 
L 440.516717 234.435479 
L 446.170213 224.824443 
L 451.823708 223.31467 
L 457.477204 222.989721 
L 463.130699 223.485766 
L 468.784195 219.37354 
L 474.43769 222.41283 
L 480.091185 226.453651 
L 485.744681 221.698524 
L 491.398176 222.013141 
L 497.051672 222.835999 
L 502.705167 219.128918 
L 508.358663 213.97243 
L 514.012158 215.56392 
L 519.665653 225.158386 
L 525.319149 217.582668 
L 530.972644 218.016008 
L 536.62614 217.310257 
L 542.279635 219.623069 
L 547.933131 222.951667 
L 553.586626 222.32725 
L 559.240122 216.439034 
L 564.893617 212.053516 
L 570.547112 221.081427 
L 576.200608 220.176983 
L 581.854103 221.548822 
L 587.507599 224.115215 
L 593.161094 221.364376 
L 598.81459 211.503381 
L 604.468085 218.083945 
L 610.121581 217.295304 
L 615.775076 216.399174 
L 621.428571 217.532374 
" style="fill:none;stroke:#0000ff;stroke-linecap:round;stroke-opacity:0.7;stroke-width:4;"/>
   </g>
   <g id="patch_3">
    <path d="M 90 315 
L 90 43.2 
" style="fill:none;stroke:#262626;stroke-linecap:square;stroke-linejoin:miter;stroke-width:1.5;"/>
   </g>
   <g id="patch_4">
    <path d="M 648 315 
L 648 43.2 
" style="fill:none;stroke:#262626;stroke-linecap:square;stroke-linejoin:miter;stroke-width:1.5;"/>
   </g>
   <g id="patch_5">
    <path d="M 90 315 
L 648 315 
" style="fill:none;stroke:#262626;stroke-linecap:square;stroke-linejoin:miter;stroke-width:1.5;"/>
   </g>
   <g id="patch_6">
    <path d="M 90 43.2 
L 648 43.2 
" style="fill:none;stroke:#262626;stroke-linecap:square;stroke-linejoin:miter;stroke-width:1.5;"/>
   </g>
   <g id="text_14">
    <!-- CDD Anomaly   -->
    <g style="fill:#262626;" transform="translate(90 37.2)scale(0.1 -0.1)">
     <defs>
      <path d="M 64.40625 67.28125 
L 64.40625 56.890625 
Q 59.421875 61.53125 53.78125 63.8125 
Q 48.140625 66.109375 41.796875 66.109375 
Q 29.296875 66.109375 22.65625 58.46875 
Q 16.015625 50.828125 16.015625 36.375 
Q 16.015625 21.96875 22.65625 14.328125 
Q 29.296875 6.6875 41.796875 6.6875 
Q 48.140625 6.6875 53.78125 8.984375 
Q 59.421875 11.28125 64.40625 15.921875 
L 64.40625 5.609375 
Q 59.234375 2.09375 53.4375 0.328125 
Q 47.65625 -1.421875 41.21875 -1.421875 
Q 24.65625 -1.421875 15.125 8.703125 
Q 5.609375 18.84375 5.609375 36.375 
Q 5.609375 53.953125 15.125 64.078125 
Q 24.65625 74.21875 41.21875 74.21875 
Q 47.75 74.21875 53.53125 72.484375 
Q 59.328125 70.75 64.40625 67.28125 
z
" id="DejaVuSans-67"/>
      <path d="M 19.671875 64.796875 
L 19.671875 8.109375 
L 31.59375 8.109375 
Q 46.6875 8.109375 53.6875 14.9375 
Q 60.6875 21.78125 60.6875 36.53125 
Q 60.6875 51.171875 53.6875 57.984375 
Q 46.6875 64.796875 31.59375 64.796875 
z
M 9.8125 72.90625 
L 30.078125 72.90625 
Q 51.265625 72.90625 61.171875 64.09375 
Q 71.09375 55.28125 71.09375 36.53125 
Q 71.09375 17.671875 61.125 8.828125 
Q 51.171875 0 30.078125 0 
L 9.8125 0 
z
" id="DejaVuSans-68"/>
     </defs>
     <use xlink:href="#DejaVuSans-67"/>
     <use x="69.824219" xlink:href="#DejaVuSans-68"/>
     <use x="146.826172" xlink:href="#DejaVuSans-68"/>
     <use x="223.828125" xlink:href="#DejaVuSans-32"/>
     <use x="255.615234" xlink:href="#DejaVuSans-65"/>
     <use x="324.023438" xlink:href="#DejaVuSans-110"/>
     <use x="387.402344" xlink:href="#DejaVuSans-111"/>
     <use x="448.583984" xlink:href="#DejaVuSans-109"/>
     <use x="545.996094" xlink:href="#DejaVuSans-97"/>
     <use x="607.275391" xlink:href="#DejaVuSans-108"/>
     <use x="635.058594" xlink:href="#DejaVuSans-121"/>
     <use x="694.238281" xlink:href="#DejaVuSans-32"/>
     <use x="726.025391" xlink:href="#DejaVuSans-32"/>
    </g>
   </g>
   <g id="text_15">
    <!-- Reference:1971-2000 -->
    <g style="fill:#262626;" transform="translate(539.770313 37.2)scale(0.1 -0.1)">
     <defs>
      <path d="M 44.390625 34.1875 
Q 47.5625 33.109375 50.5625 29.59375 
Q 53.5625 26.078125 56.59375 19.921875 
L 66.609375 0 
L 56 0 
L 46.6875 18.703125 
Q 43.0625 26.03125 39.671875 28.421875 
Q 36.28125 30.8125 30.421875 30.8125 
L 19.671875 30.8125 
L 19.671875 0 
L 9.8125 0 
L 9.8125 72.90625 
L 32.078125 72.90625 
Q 44.578125 72.90625 50.734375 67.671875 
Q 56.890625 62.453125 56.890625 51.90625 
Q 56.890625 45.015625 53.6875 40.46875 
Q 50.484375 35.9375 44.390625 34.1875 
z
M 19.671875 64.796875 
L 19.671875 38.921875 
L 32.078125 38.921875 
Q 39.203125 38.921875 42.84375 42.21875 
Q 46.484375 45.515625 46.484375 51.90625 
Q 46.484375 58.296875 42.84375 61.546875 
Q 39.203125 64.796875 32.078125 64.796875 
z
" id="DejaVuSans-82"/>
      <path d="M 37.109375 75.984375 
L 37.109375 68.5 
L 28.515625 68.5 
Q 23.6875 68.5 21.796875 66.546875 
Q 19.921875 64.59375 19.921875 59.515625 
L 19.921875 54.6875 
L 34.71875 54.6875 
L 34.71875 47.703125 
L 19.921875 47.703125 
L 19.921875 0 
L 10.890625 0 
L 10.890625 47.703125 
L 2.296875 47.703125 
L 2.296875 54.6875 
L 10.890625 54.6875 
L 10.890625 58.5 
Q 10.890625 67.625 15.140625 71.796875 
Q 19.390625 75.984375 28.609375 75.984375 
z
" id="DejaVuSans-102"/>
      <path d="M 48.78125 52.59375 
L 48.78125 44.1875 
Q 44.96875 46.296875 41.140625 47.34375 
Q 37.3125 48.390625 33.40625 48.390625 
Q 24.65625 48.390625 19.8125 42.84375 
Q 14.984375 37.3125 14.984375 27.296875 
Q 14.984375 17.28125 19.8125 11.734375 
Q 24.65625 6.203125 33.40625 6.203125 
Q 37.3125 6.203125 41.140625 7.25 
Q 44.96875 8.296875 48.78125 10.40625 
L 48.78125 2.09375 
Q 45.015625 0.34375 40.984375 -0.53125 
Q 36.96875 -1.421875 32.421875 -1.421875 
Q 20.0625 -1.421875 12.78125 6.34375 
Q 5.515625 14.109375 5.515625 27.296875 
Q 5.515625 40.671875 12.859375 48.328125 
Q 20.21875 56 33.015625 56 
Q 37.15625 56 41.109375 55.140625 
Q 45.0625 54.296875 48.78125 52.59375 
z
" id="DejaVuSans-99"/>
      <path d="M 11.71875 12.40625 
L 22.015625 12.40625 
L 22.015625 0 
L 11.71875 0 
z
M 11.71875 51.703125 
L 22.015625 51.703125 
L 22.015625 39.3125 
L 11.71875 39.3125 
z
" id="DejaVuSans-58"/>
      <path d="M 10.984375 1.515625 
L 10.984375 10.5 
Q 14.703125 8.734375 18.5 7.8125 
Q 22.3125 6.890625 25.984375 6.890625 
Q 35.75 6.890625 40.890625 13.453125 
Q 46.046875 20.015625 46.78125 33.40625 
Q 43.953125 29.203125 39.59375 26.953125 
Q 35.25 24.703125 29.984375 24.703125 
Q 19.046875 24.703125 12.671875 31.3125 
Q 6.296875 37.9375 6.296875 49.421875 
Q 6.296875 60.640625 12.9375 67.421875 
Q 19.578125 74.21875 30.609375 74.21875 
Q 43.265625 74.21875 49.921875 64.515625 
Q 56.59375 54.828125 56.59375 36.375 
Q 56.59375 19.140625 48.40625 8.859375 
Q 40.234375 -1.421875 26.421875 -1.421875 
Q 22.703125 -1.421875 18.890625 -0.6875 
Q 15.09375 0.046875 10.984375 1.515625 
z
M 30.609375 32.421875 
Q 37.25 32.421875 41.125 36.953125 
Q 45.015625 41.5 45.015625 49.421875 
Q 45.015625 57.28125 41.125 61.84375 
Q 37.25 66.40625 30.609375 66.40625 
Q 23.96875 66.40625 20.09375 61.84375 
Q 16.21875 57.28125 16.21875 49.421875 
Q 16.21875 41.5 20.09375 36.953125 
Q 23.96875 32.421875 30.609375 32.421875 
z
" id="DejaVuSans-57"/>
      <path d="M 8.203125 72.90625 
L 55.078125 72.90625 
L 55.078125 68.703125 
L 28.609375 0 
L 18.3125 0 
L 43.21875 64.59375 
L 8.203125 64.59375 
z
" id="DejaVuSans-55"/>
      <path d="M 4.890625 31.390625 
L 31.203125 31.390625 
L 31.203125 23.390625 
L 4.890625 23.390625 
z
" id="DejaVuSans-45"/>
     </defs>
     <use xlink:href="#DejaVuSans-82"/>
     <use x="64.982422" xlink:href="#DejaVuSans-101"/>
     <use x="126.505859" xlink:href="#DejaVuSans-102"/>
     <use x="161.710938" xlink:href="#DejaVuSans-101"/>
     <use x="223.234375" xlink:href="#DejaVuSans-114"/>
     <use x="262.097656" xlink:href="#DejaVuSans-101"/>
     <use x="323.621094" xlink:href="#DejaVuSans-110"/>
     <use x="387" xlink:href="#DejaVuSans-99"/>
     <use x="441.980469" xlink:href="#DejaVuSans-101"/>
     <use x="503.503906" xlink:href="#DejaVuSans-58"/>
     <use x="537.195312" xlink:href="#DejaVuSans-49"/>
     <use x="600.818359" xlink:href="#DejaVuSans-57"/>
     <use x="664.441406" xlink:href="#DejaVuSans-55"/>
     <use x="728.064453" xlink:href="#DejaVuSans-49"/>
     <use x="791.6875" xlink:href="#DejaVuSans-45"/>
     <use x="827.771484" xlink:href="#DejaVuSans-50"/>
     <use x="891.394531" xlink:href="#DejaVuSans-48"/>
     <use x="955.017578" xlink:href="#DejaVuSans-48"/>
     <use x="1018.640625" xlink:href="#DejaVuSans-48"/>
    </g>
   </g>
   <g id="legend_1">
    <g id="patch_7">
     <path d="M 97.7 84.291875 
L 199.9175 84.291875 
Q 202.1175 84.291875 202.1175 82.091875 
L 202.1175 50.9 
Q 202.1175 48.7 199.9175 48.7 
L 97.7 48.7 
Q 95.5 48.7 95.5 50.9 
L 95.5 82.091875 
Q 95.5 84.291875 97.7 84.291875 
z
" style="fill:#ffffff;opacity:0.8;stroke:#cccccc;stroke-linejoin:miter;"/>
    </g>
    <g id="line2d_25">
     <path d="M 99.9 57.608281 
L 121.9 57.608281 
" style="fill:none;stroke:#ff0000;stroke-linecap:round;stroke-opacity:0.7;stroke-width:4;"/>
    </g>
    <g id="line2d_26"/>
    <g id="text_16">
     <!-- CDD RCP8.5 -->
     <g style="fill:#262626;" transform="translate(130.7 61.458281)scale(0.11 -0.11)">
      <defs>
       <path d="M 19.671875 64.796875 
L 19.671875 37.40625 
L 32.078125 37.40625 
Q 38.96875 37.40625 42.71875 40.96875 
Q 46.484375 44.53125 46.484375 51.125 
Q 46.484375 57.671875 42.71875 61.234375 
Q 38.96875 64.796875 32.078125 64.796875 
z
M 9.8125 72.90625 
L 32.078125 72.90625 
Q 44.34375 72.90625 50.609375 67.359375 
Q 56.890625 61.8125 56.890625 51.125 
Q 56.890625 40.328125 50.609375 34.8125 
Q 44.34375 29.296875 32.078125 29.296875 
L 19.671875 29.296875 
L 19.671875 0 
L 9.8125 0 
z
" id="DejaVuSans-80"/>
       <path d="M 10.6875 12.40625 
L 21 12.40625 
L 21 0 
L 10.6875 0 
z
" id="DejaVuSans-46"/>
      </defs>
      <use xlink:href="#DejaVuSans-67"/>
      <use x="69.824219" xlink:href="#DejaVuSans-68"/>
      <use x="146.826172" xlink:href="#DejaVuSans-68"/>
      <use x="223.828125" xlink:href="#DejaVuSans-32"/>
      <use x="255.615234" xlink:href="#DejaVuSans-82"/>
      <use x="320.097656" xlink:href="#DejaVuSans-67"/>
      <use x="389.921875" xlink:href="#DejaVuSans-80"/>
      <use x="450.224609" xlink:href="#DejaVuSans-56"/>
      <use x="513.847656" xlink:href="#DejaVuSans-46"/>
      <use x="545.634766" xlink:href="#DejaVuSans-53"/>
     </g>
    </g>
    <g id="line2d_27">
     <path d="M 99.9 73.754219 
L 121.9 73.754219 
" style="fill:none;stroke:#0000ff;stroke-linecap:round;stroke-opacity:0.7;stroke-width:4;"/>
    </g>
    <g id="line2d_28"/>
    <g id="text_17">
     <!-- CDD RCP4.5 -->
     <g style="fill:#262626;" transform="translate(130.7 77.604219)scale(0.11 -0.11)">
      <use xlink:href="#DejaVuSans-67"/>
      <use x="69.824219" xlink:href="#DejaVuSans-68"/>
      <use x="146.826172" xlink:href="#DejaVuSans-68"/>
      <use x="223.828125" xlink:href="#DejaVuSans-32"/>
      <use x="255.615234" xlink:href="#DejaVuSans-82"/>
      <use x="320.097656" xlink:href="#DejaVuSans-67"/>
      <use x="389.921875" xlink:href="#DejaVuSans-80"/>
      <use x="450.224609" xlink:href="#DejaVuSans-52"/>
      <use x="513.847656" xlink:href="#DejaVuSans-46"/>
      <use x="545.634766" xlink:href="#DejaVuSans-53"/>
     </g>
    </g>
   </g>
  </g>
 </g>
 <defs>
  <clipPath id="p1e018b7cda">
   <rect height="271.8" width="558" x="90" y="43.2"/>
  </clipPath>
 </defs>
</svg>
